<svg width="573" height="218" viewBox="0 0 573 218" fill="none" xmlns="http://www.w3.org/2000/svg">
<g filter="url(#filter0_d_627_5798)">
<path d="M55.5016 170.137H8.37656L8.37656 48.3373H55.5016V88.2123H94.6516V48.3373H141.777V170.137H94.6516V127.362H55.5016V170.137ZM144.671 133.742H188.171V169.992H144.671V133.742ZM264.302 170.137H217.177V48.3373L294.172 48.3373C329.117 48.3373 343.762 58.7773 343.762 79.2223C343.762 91.4023 337.962 100.247 326.217 105.902C341.007 111.267 349.852 122.577 349.852 135.917C349.852 159.117 336.512 170.137 294.172 170.137H270.102L265.752 134.612H288.807C298.667 134.612 302.727 132.292 302.727 127.362C302.727 122.432 298.667 120.112 288.807 120.112H264.302V170.137ZM264.302 94.7373H288.082C295.912 94.7373 299.537 92.4173 299.537 88.2123C299.537 84.0073 295.912 81.6873 288.082 81.6873H264.302V94.7373ZM351.347 133.742H394.847V169.992H351.347V133.742ZM494.903 173.037C450.968 173.037 422.403 147.662 422.403 109.237C422.403 70.8123 450.968 45.4373 494.903 45.4373C533.038 45.4373 557.833 64.2873 564.358 94.0123L516.218 105.322C514.623 96.6223 507.228 88.9373 494.903 88.9373C480.838 88.9373 473.443 98.9423 473.298 109.237C473.153 119.532 480.838 129.537 494.903 129.537C507.373 129.537 514.768 121.707 516.363 112.862L564.358 124.172C557.978 154.042 533.038 173.037 494.903 173.037Z" fill="#333333"/>
</g>
<defs>
<filter id="filter0_d_627_5798" x="0.375" y="39.4375" width="571.984" height="143.6" filterUnits="userSpaceOnUse" color-interpolation-filters="sRGB">
<feFlood flood-opacity="0" result="BackgroundImageFix"/>
<feColorMatrix in="SourceAlpha" type="matrix" values="0 0 0 0 0 0 0 0 0 0 0 0 0 0 0 0 0 0 127 0" result="hardAlpha"/>
<feOffset dy="2"/>
<feGaussianBlur stdDeviation="4"/>
<feComposite in2="hardAlpha" operator="out"/>
<feColorMatrix type="matrix" values="0 0 0 0 0.729167 0 0 0 0 0.729167 0 0 0 0 0.729167 0 0 0 1 0"/>
<feBlend mode="normal" in2="BackgroundImageFix" result="effect1_dropShadow_627_5798"/>
<feBlend mode="normal" in="SourceGraphic" in2="effect1_dropShadow_627_5798" result="shape"/>
</filter>
</defs>
</svg>
