<svg width="419" height="468" viewBox="0 0 419 468" fill="none" xmlns="http://www.w3.org/2000/svg">
<path d="M64.7188 119.594H49.6016V79.9849H20.8906V119.594H5.77344V30.1802H20.8906V66.5083H49.6016V30.1802H64.7188V119.594ZM128.412 74.9458C128.412 70.2583 127.827 65.7661 126.655 61.4692C125.483 57.0942 123.881 53.3833 121.85 50.3364C119.897 47.5239 117.553 45.4146 114.819 44.0083C112.084 42.5239 109.35 41.7817 106.616 41.7817C103.881 41.7817 101.108 42.5239 98.2953 44.0083C95.5609 45.4146 93.2562 47.5239 91.3812 50.3364C89.2719 53.3833 87.6312 57.0942 86.4594 61.4692C85.2875 65.7661 84.7016 70.2583 84.7016 74.9458C84.7016 79.6333 85.2875 84.1255 86.4594 88.4224C87.6312 92.6411 89.2719 96.2739 91.3812 99.3208C93.2562 102.211 95.5609 104.36 98.2953 105.766C101.108 107.172 103.881 107.875 106.616 107.875C109.35 107.875 112.084 107.172 114.819 105.766C117.553 104.36 119.897 102.211 121.85 99.3208C123.881 96.2739 125.483 92.6411 126.655 88.4224C127.827 84.1255 128.412 79.6333 128.412 74.9458ZM143.647 74.9458C143.647 81.1958 142.787 87.2114 141.069 92.9927C139.428 98.7739 136.967 103.735 133.686 107.875C130.405 112.094 126.342 115.336 121.498 117.602C116.733 119.868 111.772 121 106.616 121C101.381 121 96.3422 119.868 91.4984 117.602C86.7328 115.336 82.7094 112.094 79.4281 107.875C76.1469 103.735 73.6469 98.7739 71.9281 92.9927C70.2875 87.2114 69.4672 81.1958 69.4672 74.9458C69.4672 68.6958 70.2875 62.6802 71.9281 56.8989C73.6469 51.1177 76.1469 46.1177 79.4281 41.8989C82.7094 37.7583 86.7328 34.5161 91.4984 32.1724C96.3422 29.8286 101.381 28.6567 106.616 28.6567C111.772 28.6567 116.733 29.8286 121.498 32.1724C126.342 34.5161 130.405 37.7583 133.686 41.8989C136.967 46.1177 139.428 51.1177 141.069 56.8989C142.787 62.6802 143.647 68.6958 143.647 74.9458ZM225.856 119.594H211.677V62.1724L193.044 119.594H181.559L163.044 62.1724V119.594H148.747V30.1802H166.208L187.419 96.0396L208.395 30.1802H225.856V119.594ZM283.573 119.594H234.12V30.1802H282.636V43.7739H249.238V66.2739H281.113V79.7505H249.238V106.118H283.573V119.594ZM61.6719 249.227C61.6719 256.18 59.9141 261.727 56.3984 265.868C52.8828 270.008 48.5078 272.86 43.2734 274.422C41.3984 274.891 39.3281 275.204 37.0625 275.36C34.875 275.516 33.1172 275.594 31.7891 275.594H5.77344V186.18H30.3828C39.1328 186.18 46.0078 188.329 51.0078 192.625C56.0859 196.922 58.625 203.055 58.625 211.024C58.625 215.321 57.6484 218.915 55.6953 221.805C53.7422 224.696 51.2422 226.844 48.1953 228.25C52.1016 229.813 55.3047 232.196 57.8047 235.399C60.3828 238.602 61.6719 243.211 61.6719 249.227ZM20.7734 262.352H30.5C31.2813 262.352 32.4531 262.313 34.0156 262.235C35.5781 262.157 36.7109 262 37.4141 261.766C40.5391 260.75 42.8438 259.149 44.3281 256.961C45.8125 254.774 46.5547 252.196 46.5547 249.227C46.5547 246.102 45.8125 243.485 44.3281 241.375C42.8438 239.188 40.5391 237.625 37.4141 236.688C36.7109 236.375 35.6172 236.102 34.1328 235.868C32.7266 235.633 31.4766 235.516 30.3828 235.516H20.7734V262.352ZM43.5078 211.024C43.5078 207.352 42.5312 204.657 40.5781 202.938C38.7031 201.141 36.125 200.086 32.8438 199.774C32.1406 199.696 31.3203 199.657 30.3828 199.657C29.4453 199.579 28.7031 199.54 28.1562 199.54H20.7734V222.274H32.8438C35.9688 221.883 38.5078 220.711 40.4609 218.758C42.4922 216.805 43.5078 214.227 43.5078 211.024ZM130.17 275.594H114.467L106.498 249.344H82.5922L74.7406 275.594H59.1547L87.2797 186.18H101.811L130.17 275.594ZM102.397 235.75L94.6625 209.735L86.6937 235.75H102.397ZM186.833 213.016C186.833 217.157 185.895 220.946 184.02 224.383C182.223 227.821 179.802 230.555 176.755 232.586C175.114 233.68 174.059 234.266 173.591 234.344C177.106 236.219 179.997 240.243 182.262 246.415C185.075 254.149 187.419 263.875 189.294 275.594H173.473C171.286 260.75 168.669 251.141 165.622 246.766C162.419 242.079 158.356 239.735 153.434 239.735H148.278V225.79H154.489C157.302 225.79 159.645 225.633 161.52 225.321C163.473 224.93 165.114 224.188 166.442 223.094C167.848 222.157 169.059 220.79 170.075 218.993C171.169 217.196 171.716 215.204 171.716 213.016C171.716 210.438 171.169 208.329 170.075 206.688C169.059 204.969 167.887 203.641 166.559 202.704C164.997 201.61 163.239 200.829 161.286 200.36C159.411 199.891 157.653 199.657 156.012 199.657H146.872V275.594H131.755V186.18H155.661C159.567 186.18 163.317 186.727 166.911 187.821C170.505 188.836 173.747 190.282 176.637 192.157C179.762 194.266 182.223 197 184.02 200.36C185.895 203.719 186.833 207.938 186.833 213.016ZM207.636 275.594H192.519V186.18H207.636V275.594ZM266.056 250.282C266.056 259.344 263.244 266.063 257.619 270.438C251.994 274.813 244.416 277 234.884 277C231.291 277 227.541 276.571 223.634 275.711C219.806 274.852 216.33 273.875 213.205 272.782V257.43C217.814 259.305 221.642 260.711 224.689 261.649C226.408 262.118 228.244 262.547 230.197 262.938C232.15 263.329 234.025 263.524 235.822 263.524C237.775 263.524 239.572 263.368 241.212 263.055C242.931 262.743 244.455 262.04 245.783 260.946C247.033 260.165 248.166 259.032 249.181 257.547C250.197 256.063 250.705 254.188 250.705 251.922C250.705 249.657 250.236 247.782 249.298 246.297C248.361 244.735 247.306 243.407 246.134 242.313C243.322 239.891 240.275 237.821 236.994 236.102C234.728 234.852 232.189 233.446 229.377 231.883C226.564 230.243 223.908 228.407 221.408 226.375C218.752 224.266 216.603 221.766 214.962 218.875C213.322 215.985 212.502 212.743 212.502 209.149C212.502 200.79 215.041 194.618 220.119 190.633C225.197 186.649 231.759 184.657 239.806 184.657C241.837 184.657 243.869 184.852 245.9 185.243C247.931 185.555 249.767 185.907 251.408 186.297C254.377 187.157 257.619 188.172 261.134 189.344V204.11C256.916 201.922 252.97 200.321 249.298 199.305C245.705 198.29 242.345 197.782 239.22 197.782C235.939 197.782 233.166 198.719 230.9 200.594C228.712 202.391 227.619 204.969 227.619 208.329C227.619 209.657 227.97 210.829 228.673 211.844C229.377 212.86 230.236 213.875 231.252 214.891C232.267 216.063 233.439 217.118 234.767 218.055C236.173 218.993 237.736 219.891 239.455 220.75C244.923 223.719 249.064 226.141 251.877 228.016C254.767 229.813 257.15 231.61 259.025 233.407C261.134 235.36 262.775 237.665 263.947 240.321C265.197 242.977 265.9 246.297 266.056 250.282ZM327.406 199.774H303.969V275.594H288.852V199.774H265.414V186.18H327.406V199.774ZM385.827 275.594H370.123L362.155 249.344H338.248L330.397 275.594H314.811L342.936 186.18H357.467L385.827 275.594ZM358.053 235.75L350.319 209.735L342.35 235.75H358.053ZM67.8828 370.54H52.1797C52.1797 366.321 51.75 363.313 50.8906 361.516C50.1094 359.719 49.0938 358.274 47.8438 357.18C45.4219 355.071 42.4922 354.016 39.0547 354.016C36.3203 354.016 33.7031 354.641 31.2031 355.891C28.7031 357.063 26.3984 358.977 24.2891 361.633C22.1797 364.446 20.5 368.04 19.25 372.415C18 376.79 17.375 381.204 17.375 385.657C17.375 388.469 17.7266 391.868 18.4297 395.852C19.1328 399.836 20.4219 403.743 22.2969 407.571C24.1719 411.086 26.6719 414.016 29.7969 416.36C32.9219 418.625 36.8672 419.758 41.6328 419.758C45.1484 419.758 48.7031 419.133 52.2969 417.883C55.9688 416.555 60.2656 414.172 65.1875 410.735V426.672C64.7188 426.985 63.5469 427.61 61.6719 428.547C59.875 429.485 57.9609 430.266 55.9297 430.891C50.7734 432.375 45.1875 433.118 39.1719 433.118C32.6875 433.118 27.0625 431.711 22.2969 428.899C17.5312 426.008 13.5859 422.258 10.4609 417.649C7.41406 413.04 5.22656 408 3.89844 402.532C2.64844 396.985 2.02344 391.36 2.02344 385.657C2.02344 379.875 2.6875 374.329 4.01562 369.016C5.42188 363.625 7.6875 358.938 10.8125 354.954C13.8594 350.891 17.7266 347.493 22.4141 344.758C27.1016 342.024 32.6484 340.657 39.0547 340.657C42.9609 340.657 46.6719 341.36 50.1875 342.766C53.7031 344.172 56.75 346.047 59.3281 348.391C61.9844 350.657 64.0547 353.43 65.5391 356.711C67.1016 359.993 67.8828 364.602 67.8828 370.54ZM121.733 431.594H72.1625V342.18H87.2797V418.118H121.733V431.594ZM152.731 419.407C155.387 419.563 157.692 419.055 159.645 417.883C161.598 416.711 163.122 415.188 164.216 413.313C165.466 410.969 166.364 408.469 166.911 405.813C167.536 403.079 167.848 400.071 167.848 396.79V342.18H182.966V397.727C182.966 401.399 182.614 405.266 181.911 409.329C181.286 413.391 179.841 417.141 177.575 420.579C175.387 424.094 172.262 427.063 168.2 429.485C164.137 431.829 158.981 433 152.731 433C146.481 433 141.325 431.829 137.262 429.485C133.2 427.063 130.075 424.094 127.887 420.579C125.622 417.141 124.177 413.391 123.552 409.329C122.927 405.188 122.614 401.321 122.614 397.727V342.18H137.731V396.79C137.731 400.071 138.005 403.079 138.552 405.813C139.098 408.469 139.997 410.969 141.247 413.313C142.341 415.188 143.825 416.672 145.7 417.766C147.653 418.86 149.997 419.407 152.731 419.407ZM247.011 405.227C247.011 412.18 245.253 417.727 241.738 421.868C238.222 426.008 233.847 428.86 228.613 430.422C226.738 430.891 224.667 431.204 222.402 431.36C220.214 431.516 218.456 431.594 217.128 431.594H191.113V342.18H215.722C224.472 342.18 231.347 344.329 236.347 348.625C241.425 352.922 243.964 359.055 243.964 367.024C243.964 371.321 242.988 374.915 241.034 377.805C239.081 380.696 236.581 382.844 233.534 384.25C237.441 385.813 240.644 388.196 243.144 391.399C245.722 394.602 247.011 399.211 247.011 405.227ZM206.113 418.352H215.839C216.62 418.352 217.792 418.313 219.355 418.235C220.917 418.157 222.05 418 222.753 417.766C225.878 416.75 228.183 415.149 229.667 412.961C231.152 410.774 231.894 408.196 231.894 405.227C231.894 402.102 231.152 399.485 229.667 397.375C228.183 395.188 225.878 393.625 222.753 392.688C222.05 392.375 220.956 392.102 219.472 391.868C218.066 391.633 216.816 391.516 215.722 391.516H206.113V418.352ZM228.847 367.024C228.847 363.352 227.87 360.657 225.917 358.938C224.042 357.141 221.464 356.086 218.183 355.774C217.48 355.696 216.659 355.657 215.722 355.657C214.784 355.579 214.042 355.54 213.495 355.54H206.113V378.274H218.183C221.308 377.883 223.847 376.711 225.8 374.758C227.831 372.805 228.847 370.227 228.847 367.024Z" fill="#B3986D"/>
</svg>
