<svg width="306" height="37" viewBox="0 0 306 37" fill="none" xmlns="http://www.w3.org/2000/svg">
<g clip-path="url(#clip0_474_3323)">
<path d="M18.9668 31.0371H15.1348V19.1543H5.81836V31.0371H1.98633V4.81055H5.81836V15.6738H15.1348V4.81055H18.9668V31.0371ZM39.498 17.8887C39.498 16.4824 39.3223 15.1113 38.9707 13.7754C38.6426 12.4395 38.1504 11.3145 37.4941 10.4004C36.8848 9.48633 36.1465 8.80664 35.2793 8.36133C34.4121 7.91602 33.5215 7.69336 32.6074 7.69336C31.6934 7.69336 30.791 7.91602 29.9004 8.36133C29.0332 8.80664 28.3066 9.48633 27.7207 10.4004C27.0645 11.3145 26.5605 12.4395 26.209 13.7754C25.8574 15.1113 25.6816 16.4824 25.6816 17.8887C25.6816 19.3184 25.8574 20.6895 26.209 22.002C26.5605 23.3145 27.0645 24.4277 27.7207 25.3418C28.3066 26.2559 29.0332 26.9473 29.9004 27.416C30.791 27.8613 31.6934 28.084 32.6074 28.084C33.5215 28.084 34.4121 27.8613 35.2793 27.416C36.1465 26.9473 36.8848 26.2559 37.4941 25.3418C38.1504 24.4277 38.6426 23.3145 38.9707 22.002C39.3223 20.6895 39.498 19.3184 39.498 17.8887ZM43.3652 17.8887C43.3652 19.7402 43.1074 21.5215 42.5918 23.2324C42.0996 24.9434 41.373 26.4082 40.4121 27.627C39.4512 28.8691 38.2793 29.8184 36.8965 30.4746C35.5137 31.1074 34.084 31.4238 32.6074 31.4238C31.1074 31.4238 29.666 31.1074 28.2832 30.4746C26.9238 29.8184 25.7637 28.8691 24.8027 27.627C23.8418 26.4082 23.1035 24.9434 22.5879 23.2324C22.0957 21.5215 21.8496 19.7402 21.8496 17.8887C21.8496 16.0605 22.0957 14.291 22.5879 12.5801C23.1035 10.8691 23.8418 9.39258 24.8027 8.15039C25.7637 6.93164 26.9238 5.99414 28.2832 5.33789C29.666 4.6582 31.1074 4.31836 32.6074 4.31836C34.084 4.31836 35.5137 4.6582 36.8965 5.33789C38.2793 5.99414 39.4512 6.93164 40.4121 8.15039C41.373 9.39258 42.0996 10.8691 42.5918 12.5801C43.1074 14.291 43.3652 16.0605 43.3652 17.8887ZM68.748 31.0371H65.1621V12.0176L59.0449 31.0371H56.0215L49.9395 12.0176V31.0371H46.3184V4.81055H50.9941L57.5684 25.1309L64.0371 4.81055H68.748V31.0371ZM86.7832 31.0371H72.6504V4.81055H86.502V8.29102H76.4824V15.6035H86.0449V19.084H76.4824V27.5566H86.7832V31.0371ZM116.807 23.373C116.807 25.4121 116.291 27.0293 115.26 28.2246C114.252 29.4199 112.986 30.252 111.463 30.7207C110.971 30.8379 110.396 30.9199 109.74 30.9668C109.084 31.0137 108.568 31.0371 108.193 31.0371H100.74V4.81055H107.771C110.256 4.81055 112.225 5.41992 113.678 6.63867C115.131 7.85742 115.857 9.61523 115.857 11.9121C115.857 13.2715 115.541 14.3848 114.908 15.252C114.275 16.0957 113.49 16.7285 112.553 17.1504C113.537 17.4785 114.486 18.123 115.4 19.084C116.338 20.0215 116.807 21.4512 116.807 23.373ZM104.537 27.627H107.771C108.053 27.627 108.439 27.6152 108.932 27.5918C109.447 27.5449 109.834 27.4746 110.092 27.3809C111.1 27.0527 111.826 26.5371 112.271 25.834C112.74 25.1309 112.975 24.3105 112.975 23.373C112.975 22.3887 112.74 21.5566 112.271 20.877C111.826 20.1973 111.1 19.6934 110.092 19.3652C109.834 19.2715 109.471 19.1895 109.002 19.1191C108.533 19.0488 108.123 19.0137 107.771 19.0137H104.537V27.627ZM112.061 11.9121C112.061 10.7402 111.756 9.87305 111.146 9.31055C110.537 8.74805 109.693 8.4082 108.615 8.29102C108.357 8.26758 108.076 8.25586 107.771 8.25586C107.49 8.23242 107.244 8.2207 107.033 8.2207H104.537V15.6035H107.139C107.326 15.6035 107.561 15.6035 107.842 15.6035C108.146 15.6035 108.404 15.5918 108.615 15.5684C109.646 15.4277 110.479 15.0527 111.111 14.4434C111.744 13.8105 112.061 12.9668 112.061 11.9121ZM138.006 31.0371H133.998L131.572 23.1621H123.873L121.518 31.0371H117.51L125.877 4.81055H129.639L138.006 31.0371ZM130.553 19.6816L127.775 10.4004L124.963 19.6816H130.553ZM155.795 12.5098C155.795 13.7285 155.525 14.8418 154.986 15.8496C154.447 16.834 153.744 17.6191 152.877 18.2051C152.361 18.5098 151.939 18.7324 151.611 18.873C152.83 19.5762 153.768 20.8301 154.424 22.6348C155.268 24.9316 155.947 27.7324 156.463 31.0371H152.49C151.834 26.7012 151.037 23.8535 150.1 22.4941C149.092 21.0176 147.885 20.2793 146.479 20.2793H144.58V16.6934H146.619C147.416 16.6934 148.119 16.623 148.729 16.4824C149.338 16.3418 149.865 16.0957 150.311 15.7441C150.779 15.4395 151.166 15.0059 151.471 14.4434C151.799 13.8574 151.963 13.2129 151.963 12.5098C151.963 11.7129 151.799 11.0449 151.471 10.5059C151.166 9.9668 150.779 9.54492 150.311 9.24023C149.818 8.88867 149.256 8.64258 148.623 8.50195C148.014 8.33789 147.428 8.25586 146.865 8.25586H143.807V31.0371H139.975V4.81055H146.795C147.92 4.81055 148.998 4.95117 150.029 5.23242C151.061 5.51367 151.998 5.92383 152.842 6.46289C153.732 7.07227 154.447 7.86914 154.986 8.85352C155.525 9.81445 155.795 11.0332 155.795 12.5098ZM162.756 31.0371H158.924V4.81055H162.756V31.0371ZM181.002 23.7246C181.002 26.3496 180.182 28.2949 178.541 29.5605C176.924 30.8027 174.744 31.4238 172.002 31.4238C170.971 31.4238 169.928 31.3066 168.873 31.0723C167.818 30.8379 166.822 30.5684 165.885 30.2637V26.2559C166.963 26.7246 167.936 27.0996 168.803 27.3809C169.271 27.5215 169.822 27.6621 170.455 27.8027C171.088 27.9199 171.697 27.9785 172.283 27.9785C172.916 27.9785 173.502 27.9199 174.041 27.8027C174.604 27.6855 175.107 27.4629 175.553 27.1348C175.975 26.8535 176.338 26.4785 176.643 26.0098C176.947 25.5176 177.1 24.9082 177.1 24.1816C177.1 23.4785 176.959 22.8809 176.678 22.3887C176.396 21.8965 176.057 21.4863 175.658 21.1582C174.791 20.4082 173.865 19.7754 172.881 19.2598C172.201 18.8848 171.439 18.4629 170.596 17.9941C169.775 17.502 168.99 16.9512 168.24 16.3418C167.49 15.7324 166.869 15.0176 166.377 14.1973C165.908 13.3535 165.674 12.4043 165.674 11.3496C165.674 8.93555 166.4 7.16602 167.854 6.04102C169.307 4.89258 171.182 4.31836 173.479 4.31836C174.064 4.31836 174.65 4.37695 175.236 4.49414C175.822 4.58789 176.35 4.69336 176.818 4.81055C177.709 5.02148 178.611 5.2793 179.525 5.58398V9.38086C178.635 8.88867 177.627 8.49023 176.502 8.18555C175.377 7.85742 174.299 7.69336 173.268 7.69336C172.189 7.69336 171.287 7.99805 170.561 8.60742C169.834 9.19336 169.471 10.0254 169.471 11.1035C169.471 11.5488 169.576 11.9473 169.787 12.2988C170.021 12.627 170.291 12.9434 170.596 13.248C170.924 13.5996 171.299 13.9277 171.721 14.2324C172.143 14.5137 172.611 14.7832 173.127 15.041C174.768 15.9316 176.01 16.6582 176.854 17.2207C177.697 17.7598 178.389 18.2871 178.928 18.8027C179.561 19.3887 180.053 20.0684 180.404 20.8418C180.756 21.5918 180.955 22.5527 181.002 23.7246ZM200.268 8.29102H193.096V31.0371H189.264V8.29102H182.057V4.81055H200.268V8.29102ZM218.303 31.0371H214.295L211.869 23.1621H204.17L201.814 31.0371H197.807L206.174 4.81055H209.936L218.303 31.0371ZM210.85 19.6816L208.072 10.4004L205.26 19.6816H210.85ZM248.994 12.7207H245.021C245.021 11.5957 244.881 10.7637 244.6 10.2246C244.342 9.66211 244.025 9.19336 243.65 8.81836C243.229 8.49023 242.748 8.24414 242.209 8.08008C241.693 7.89258 241.189 7.78711 240.697 7.76367C239.807 7.76367 238.951 7.95117 238.131 8.32617C237.334 8.70117 236.607 9.31055 235.951 10.1543C235.295 11.0215 234.779 12.1348 234.404 13.4941C234.029 14.8301 233.842 16.166 233.842 17.502C233.842 18.3691 233.947 19.4121 234.158 20.6309C234.369 21.8496 234.756 23.0449 235.318 24.2168C235.904 25.2949 236.689 26.209 237.674 26.959C238.658 27.6855 239.924 28.0488 241.471 28.0488C242.596 28.0488 243.662 27.8613 244.67 27.4863C245.678 27.0879 246.85 26.4785 248.186 25.6582V29.7012C247.787 29.9121 247.4 30.1113 247.025 30.2988C246.674 30.4863 246.193 30.6738 245.584 30.8613C244.178 31.2598 242.572 31.459 240.768 31.459C238.893 31.459 237.264 31.0488 235.881 30.2285C234.521 29.4082 233.373 28.3184 232.436 26.959C231.521 25.5996 230.877 24.1113 230.502 22.4941C230.15 20.877 229.975 19.2129 229.975 17.502C229.975 15.791 230.174 14.1504 230.572 12.5801C230.971 11.0098 231.627 9.62695 232.541 8.43164C233.432 7.25977 234.557 6.28711 235.916 5.51367C237.275 4.7168 238.869 4.31836 240.697 4.31836C241.799 4.31836 242.854 4.51758 243.861 4.91602C244.869 5.29102 245.748 5.81836 246.498 6.49805C247.248 7.17773 247.846 7.99805 248.291 8.95898C248.76 9.89648 248.994 11.1504 248.994 12.7207ZM265.869 31.0371H251.701V4.81055H255.533V27.5566H265.869V31.0371ZM276.24 27.9434C277.131 27.9902 277.893 27.8145 278.525 27.416C279.182 27.0176 279.697 26.5254 280.072 25.9395C280.424 25.2129 280.682 24.4395 280.846 23.6191C281.033 22.7754 281.127 21.873 281.127 20.9121V4.81055H284.959V21.123C284.959 22.2246 284.854 23.373 284.643 24.5684C284.432 25.7637 284.01 26.8652 283.377 27.873C282.721 28.9043 281.807 29.7598 280.635 30.4395C279.486 31.0957 278.021 31.4238 276.24 31.4238C274.459 31.4238 272.982 31.0957 271.811 30.4395C270.662 29.7598 269.76 28.9043 269.104 27.873C268.471 26.8652 268.049 25.7637 267.838 24.5684C267.65 23.3496 267.557 22.2012 267.557 21.123V4.81055H271.389V20.9121C271.389 21.873 271.471 22.7754 271.635 23.6191C271.799 24.4395 272.068 25.2129 272.443 25.9395C272.795 26.5254 273.287 27.0059 273.92 27.3809C274.553 27.7559 275.326 27.9434 276.24 27.9434ZM304.893 23.373C304.893 25.4121 304.377 27.0293 303.346 28.2246C302.338 29.4199 301.072 30.252 299.549 30.7207C299.057 30.8379 298.482 30.9199 297.826 30.9668C297.17 31.0137 296.654 31.0371 296.279 31.0371H288.826V4.81055H295.857C298.342 4.81055 300.311 5.41992 301.764 6.63867C303.217 7.85742 303.943 9.61523 303.943 11.9121C303.943 13.2715 303.627 14.3848 302.994 15.252C302.361 16.0957 301.576 16.7285 300.639 17.1504C301.623 17.4785 302.572 18.123 303.486 19.084C304.424 20.0215 304.893 21.4512 304.893 23.373ZM292.623 27.627H295.857C296.139 27.627 296.525 27.6152 297.018 27.5918C297.533 27.5449 297.92 27.4746 298.178 27.3809C299.186 27.0527 299.912 26.5371 300.357 25.834C300.826 25.1309 301.061 24.3105 301.061 23.373C301.061 22.3887 300.826 21.5566 300.357 20.877C299.912 20.1973 299.186 19.6934 298.178 19.3652C297.92 19.2715 297.557 19.1895 297.088 19.1191C296.619 19.0488 296.209 19.0137 295.857 19.0137H292.623V27.627ZM300.146 11.9121C300.146 10.7402 299.842 9.87305 299.232 9.31055C298.623 8.74805 297.779 8.4082 296.701 8.29102C296.443 8.26758 296.162 8.25586 295.857 8.25586C295.576 8.23242 295.33 8.2207 295.119 8.2207H292.623V15.6035H295.225C295.412 15.6035 295.646 15.6035 295.928 15.6035C296.232 15.6035 296.49 15.5918 296.701 15.5684C297.732 15.4277 298.564 15.0527 299.197 14.4434C299.83 13.8105 300.146 12.9668 300.146 11.9121Z" fill="white"/>
</g>
<defs>
<clipPath id="clip0_474_3323">
<rect width="306" height="36" fill="white" transform="translate(0 0.740234)"/>
</clipPath>
</defs>
</svg>
