<svg width="312" height="27" viewBox="0 0 312 27" fill="none" xmlns="http://www.w3.org/2000/svg">
<path d="M19.2395 26H12.4395V16.6H7.75954V26H0.879537V1.16H7.75954V10.92H12.4395V1.16H19.2395V26ZM24.8783 3.76C26.425 1.76 28.945 0.759998 32.4383 0.759998C35.9316 0.759998 38.425 1.74667 39.9183 3.72C41.4383 5.69333 42.1983 8.90667 42.1983 13.36C42.1983 17.7867 41.425 21.0667 39.8783 23.2C38.3316 25.3333 35.825 26.4 32.3583 26.4C28.8916 26.4 26.3983 25.3467 24.8783 23.24C23.3583 21.1333 22.5983 17.8667 22.5983 13.44C22.5983 8.98667 23.3583 5.76 24.8783 3.76ZM35.3183 13.36C35.3183 10.9067 35.1183 9.25333 34.7183 8.4C34.345 7.52 33.5583 7.08 32.3583 7.08C31.185 7.08 30.425 7.52 30.0783 8.4C29.7316 9.25333 29.5583 10.8933 29.5583 13.32V14.28C29.5583 16.8667 29.745 18.5733 30.1183 19.4C30.5183 20.2 31.305 20.6 32.4783 20.6C33.6783 20.6 34.4516 20.2133 34.7983 19.44C35.145 18.6667 35.3183 17.0667 35.3183 14.64V13.36ZM69.7617 26H63.4817V13.04H63.1217L60.7617 26H54.3217L52.0817 13.04H51.6817V26H45.4817L46.3217 1.16H55.3217L57.5617 14.6H57.8817L60.0417 1.16H68.9217L69.7617 26ZM87.2664 26H73.8264V1.16H87.6664L87.2664 7.28H80.6664V11H86.3864V16.28H80.6664V20.4H87.6664L87.2664 26ZM117.477 18.84C117.477 23.6133 114.917 26 109.797 26H99.9967V1.16H109.597C112.13 1.16 114.01 1.68 115.237 2.72C116.463 3.73333 117.077 5.36 117.077 7.6C117.077 9.84 116.157 11.5467 114.317 12.72V12.96C116.423 13.7867 117.477 15.7467 117.477 18.84ZM108.197 21.56C108.997 21.56 109.53 21.3867 109.797 21.04C110.09 20.6667 110.237 19.92 110.237 18.8C110.237 17.6533 110.09 16.8533 109.797 16.4C109.503 15.92 108.97 15.68 108.197 15.68H106.917V21.56H108.197ZM108.237 11.8C108.85 11.8 109.277 11.6133 109.517 11.24C109.757 10.8667 109.877 10.2133 109.877 9.28C109.877 8.32 109.743 7.65333 109.477 7.28C109.237 6.88 108.81 6.68 108.197 6.68H106.917V11.8H108.237ZM138.441 26H131.761L131.001 22.08H126.281L125.521 26H119.161L123.721 1.16H133.881L138.441 26ZM130.241 17.4L128.841 8.52H128.561L127.161 17.4H130.241ZM158.323 9.04C158.323 10.5333 158.097 11.7733 157.643 12.76C157.19 13.7467 156.483 14.64 155.523 15.44L158.843 26H151.443L148.963 17.04H148.043V26H141.323V1.16H150.603C153.27 1.16 155.217 1.78667 156.443 3.04C157.697 4.29333 158.323 6.29333 158.323 9.04ZM149.083 12.84C149.777 12.84 150.27 12.64 150.563 12.24C150.857 11.84 151.003 11.12 151.003 10.08C151.003 9.01333 150.857 8.28 150.563 7.88C150.27 7.45333 149.79 7.24 149.123 7.24H148.043V12.84H149.083ZM169.089 26H162.289V1.16H169.089V26ZM172.702 8.64C172.702 6.26667 173.395 4.36 174.782 2.92C176.168 1.48 178.062 0.759998 180.462 0.759998C182.888 0.759998 185.368 0.999998 187.902 1.48L187.102 7.88C184.462 7.26667 182.648 6.96 181.662 6.96C180.408 6.96 179.782 7.46667 179.782 8.48C179.782 8.88 180.075 9.26667 180.662 9.64C181.275 10.0133 182.008 10.4133 182.862 10.84C183.715 11.24 184.568 11.7333 185.422 12.32C186.275 12.88 186.995 13.6933 187.582 14.76C188.195 15.8267 188.502 17.0533 188.502 18.44C188.502 20.9733 187.822 22.9333 186.462 24.32C185.102 25.7067 183.168 26.4 180.662 26.4C178.182 26.4 175.755 26.0133 173.382 25.24L173.822 19.28C176.675 20.1067 178.662 20.52 179.782 20.52C180.902 20.52 181.462 20.0267 181.462 19.04C181.462 18.5333 181.155 18.0667 180.542 17.64C179.955 17.2133 179.235 16.7867 178.382 16.36C177.528 15.9333 176.662 15.44 175.782 14.88C174.928 14.32 174.195 13.5067 173.582 12.44C172.995 11.3733 172.702 10.1067 172.702 8.64ZM206.132 7.2H201.492V26H194.652V7.2H189.732L190.132 1.16H206.532L206.132 7.2ZM226.738 26H220.058L219.298 22.08H214.578L213.818 26H207.458L212.018 1.16H222.178L226.738 26ZM218.538 17.4L217.138 8.52H216.858L215.458 17.4H218.538ZM244.979 13.84C244.979 16.1867 245.205 17.8667 245.659 18.88C246.139 19.8667 246.912 20.36 247.979 20.36C249.045 20.36 250.552 20.1067 252.499 19.6L253.539 25.24C251.432 26.0133 249.312 26.4 247.179 26.4C243.979 26.4 241.645 25.3467 240.179 23.24C238.739 21.1067 238.019 17.9467 238.019 13.76C238.019 9.54667 238.779 6.33333 240.299 4.12C241.819 1.88 244.299 0.759998 247.739 0.759998C249.765 0.759998 251.699 1.18667 253.539 2.04L252.459 8.24C250.379 7.54667 248.925 7.2 248.099 7.2C246.925 7.2 246.112 7.72 245.659 8.76C245.205 9.77333 244.979 11.4667 244.979 13.84ZM268.665 26H256.025V1.16H262.865V20.44H269.065L268.665 26ZM278.317 17.84C278.317 18.6667 278.49 19.28 278.837 19.68C279.184 20.08 279.744 20.28 280.517 20.28C281.317 20.28 281.864 20.0933 282.157 19.72C282.477 19.32 282.637 18.68 282.637 17.8V1.16H289.517V18.2C289.517 21.0533 288.73 23.1333 287.157 24.44C285.61 25.7467 283.317 26.4 280.277 26.4C277.264 26.4 275.01 25.76 273.517 24.48C272.05 23.1733 271.317 21.1067 271.317 18.28V1.16H278.317V17.84ZM311.316 18.84C311.316 23.6133 308.756 26 303.636 26H293.836V1.16H303.436C305.969 1.16 307.849 1.68 309.076 2.72C310.302 3.73333 310.916 5.36 310.916 7.6C310.916 9.84 309.996 11.5467 308.156 12.72V12.96C310.262 13.7867 311.316 15.7467 311.316 18.84ZM302.036 21.56C302.836 21.56 303.369 21.3867 303.636 21.04C303.929 20.6667 304.076 19.92 304.076 18.8C304.076 17.6533 303.929 16.8533 303.636 16.4C303.342 15.92 302.809 15.68 302.036 15.68H300.756V21.56H302.036ZM302.076 11.8C302.689 11.8 303.116 11.6133 303.356 11.24C303.596 10.8667 303.716 10.2133 303.716 9.28C303.716 8.32 303.582 7.65333 303.316 7.28C303.076 6.88 302.649 6.68 302.036 6.68H300.756V11.8H302.076Z" fill="white"/>
</svg>
