<svg width="309" height="312" viewBox="0 0 309 312" fill="none" xmlns="http://www.w3.org/2000/svg">
<path fill-rule="evenodd" clip-rule="evenodd" d="M255.801 311.314H61.564L41.8561 165.196L61.699 162.857L79.2005 292.617H238.529L259.37 160.247L279.156 162.969L255.801 311.314Z" fill="#B3986D"/>
<path fill-rule="evenodd" clip-rule="evenodd" d="M120.311 199.553L123.472 292.483L113.477 292.78L110.316 199.85L120.311 199.553ZM188.073 199.702H198.073V227.857C205.439 225.515 212.33 224.218 217.973 224.476C221.687 224.646 225.439 225.515 228.338 227.773C231.421 230.174 232.844 233.598 232.844 237.437C232.844 244.903 230.617 250.689 226.756 254.941C222.944 259.139 217.931 261.41 213.14 262.575C208.362 263.737 203.562 263.865 199.751 263.611C199.174 263.572 198.613 263.525 198.073 263.47V292.631H188.073V199.702ZM198.073 254.048C198.787 254.144 199.59 254.228 200.462 254.286C203.526 254.49 207.181 254.365 210.622 253.528C214.049 252.694 217.018 251.22 219.133 248.891C221.198 246.616 222.844 243.095 222.844 237.437C222.844 235.851 222.343 235.272 221.937 234.955C221.345 234.494 220.04 233.93 217.484 233.813C212.897 233.604 206.166 234.92 198.073 237.793V254.048Z" fill="#488DC6"/>
<path d="M198.557 201.569C198.557 212.245 178.591 220.899 153.962 220.899C129.333 220.899 109.367 212.245 109.367 201.569C109.367 190.893 129.333 182.239 153.962 182.239C178.591 182.239 198.557 190.893 198.557 201.569Z" fill="#5F4307"/>
<path fill-rule="evenodd" clip-rule="evenodd" d="M188.525 201.569C188.36 201.186 187.361 199.014 181.289 196.382C174.812 193.574 165.16 191.587 153.962 191.587C142.764 191.587 133.113 193.574 126.635 196.382C120.563 199.014 119.564 201.186 119.4 201.569C119.564 201.952 120.563 204.124 126.635 206.756C133.113 209.564 142.764 211.551 153.962 211.551C165.16 211.551 174.812 209.564 181.289 206.756C187.361 204.124 188.36 201.952 188.525 201.569ZM153.962 220.899C178.591 220.899 198.557 212.245 198.557 201.569C198.557 190.893 178.591 182.239 153.962 182.239C129.333 182.239 109.367 190.893 109.367 201.569C109.367 212.245 129.333 220.899 153.962 220.899Z" fill="#488DC6"/>
<path d="M114.349 212.716H196.112V292.631H114.349V212.716Z" fill="#488DC6"/>
<path d="M160.252 5.21365C164.266 0.269594 171.807 -0.69636 177.096 3.05613C182.384 6.80862 183.417 13.8586 179.403 18.8026L21.6478 213.113C17.6339 218.057 10.0927 219.023 4.80412 215.27C-0.484443 211.518 -1.51771 204.468 2.49625 199.524L160.252 5.21365Z" fill="#B3986D"/>
<path fill-rule="evenodd" clip-rule="evenodd" d="M13.6823 207.461L171.438 13.1507C172.113 12.3193 171.939 11.1338 171.05 10.5027C170.16 9.87172 168.892 10.0342 168.217 10.8656L10.4618 205.176C9.78675 206.007 9.96051 207.192 10.8498 207.824C11.7392 208.455 13.0073 208.292 13.6823 207.461ZM177.096 3.05613C171.807 -0.69636 164.266 0.269594 160.252 5.21365L2.49625 199.524C-1.51771 204.468 -0.484443 211.518 4.80412 215.27C10.0927 219.023 17.6339 218.057 21.6478 213.113L179.403 18.8026C183.417 13.8586 182.384 6.80862 177.096 3.05613Z" fill="#B3986D"/>
<path d="M306.419 202.653C309.868 207.957 308.065 214.87 302.391 218.094C296.718 221.318 289.323 219.632 285.874 214.328L160.005 20.7459C156.557 15.4421 158.36 8.5289 164.033 5.30492C169.707 2.08095 177.102 3.76702 180.55 9.07088L306.419 202.653Z" fill="#B3986D"/>
<path fill-rule="evenodd" clip-rule="evenodd" d="M168.55 15.8901L294.419 209.472C294.999 210.364 296.243 210.648 297.197 210.106C298.151 209.563 298.454 208.401 297.874 207.509L172.005 13.9268C171.425 13.0348 170.182 12.7513 169.228 13.2935C168.274 13.8356 167.97 14.9981 168.55 15.8901ZM302.391 218.094C308.065 214.87 309.868 207.957 306.419 202.653L180.55 9.07088C177.102 3.76702 169.707 2.08095 164.033 5.30492C158.36 8.5289 156.557 15.4421 160.005 20.7459L285.874 214.328C289.323 219.632 296.718 221.318 302.391 218.094Z" fill="#B3986D"/>
<path d="M125.561 161.042H117.061V149.292H111.211V161.042H102.611V129.992H111.211V142.191H117.061V129.992H125.561V161.042Z" fill="#B3986D"/>
<path d="M132.61 133.242C134.543 130.742 137.693 129.492 142.06 129.492C146.426 129.492 149.543 130.725 151.41 133.191C153.31 135.658 154.26 139.675 154.26 145.242C154.26 150.775 153.293 154.875 151.36 157.542C149.426 160.208 146.293 161.542 141.96 161.542C137.626 161.542 134.51 160.225 132.61 157.592C130.71 154.958 129.76 150.875 129.76 145.342C129.76 139.775 130.71 135.742 132.61 133.242ZM145.66 145.242C145.66 142.175 145.41 140.108 144.91 139.042C144.443 137.942 143.46 137.392 141.96 137.392C140.493 137.392 139.543 137.942 139.11 139.042C138.676 140.108 138.46 142.158 138.46 145.191V146.392C138.46 149.625 138.693 151.758 139.16 152.792C139.66 153.792 140.643 154.292 142.11 154.292C143.61 154.292 144.576 153.808 145.01 152.842C145.443 151.875 145.66 149.875 145.66 146.842V145.242Z" fill="#B3986D"/>
<path d="M188.714 161.042H180.864V144.842H180.414L177.464 161.042H169.414L166.614 144.842H166.114V161.042H158.364L159.414 129.992H170.664L173.464 146.792H173.864L176.564 129.992H187.664L188.714 161.042Z" fill="#B3986D"/>
<path d="M210.595 161.042H193.795V129.992H211.095L210.595 137.642H202.345V142.292H209.495V148.892H202.345V154.042H211.095L210.595 161.042Z" fill="#B3986D"/>
</svg>
