<svg width="904" height="613" viewBox="0 0 904 613" fill="none" xmlns="http://www.w3.org/2000/svg">
<g filter="url(#filter0_d_609_4793)">
<path d="M51.75 176H3L3 50H51.75V91.25H92.25V50H141V176H92.25V131.75H51.75V176ZM51.75 371H3L3 245H82.65C118.8 245 133.95 255.8 133.95 276.95C133.95 289.55 127.95 298.7 115.8 304.55C131.1 310.1 140.25 321.8 140.25 335.6C140.25 359.6 126.45 371 82.65 371H57.75L53.25 334.25H77.1C87.3 334.25 91.5 331.85 91.5 326.75C91.5 321.65 87.3 319.25 77.1 319.25H51.75V371ZM51.75 293H76.35C84.45 293 88.2 290.6 88.2 286.25C88.2 281.9 84.45 279.5 76.35 279.5H51.75V293ZM76.5 569C31.05 569 1.5 542.75 1.5 503C1.5 463.25 31.05 437 76.5 437C115.95 437 141.6 456.5 148.35 487.25L98.55 498.95C96.9 489.95 89.25 482 76.5 482C61.95 482 54.3 492.35 54.15 503C54 513.65 61.95 524 76.5 524C89.4 524 97.05 515.9 98.7 506.75L148.35 518.45C141.75 549.35 115.95 569 76.5 569Z" fill="#333333"/>
<path d="M217.494 179C172.944 179 143.994 153.95 142.494 115.85H195.144C196.194 125.6 204.144 134 217.494 134C231.744 134 239.994 124.1 239.994 112.85C239.994 101.6 231.894 92 217.494 92C203.994 92 195.294 100.55 195.144 114.35L142.494 109.85C144.144 71.9 173.094 47 217.494 47C263.094 47 292.494 73.25 292.494 113C292.494 152.75 263.094 179 217.494 179ZM293.924 50H350.924L374.924 115.4L398.924 50H455.924V176H409.424V110.45L389.174 176H360.674L340.424 110.45V176H293.924V50ZM572.191 88.25L507.691 88.25V97.25L570.691 97.25V127.25L507.691 127.25V136.25H572.941V176H458.941V50H572.191V88.25ZM248.297 245L285.797 371H233.297L229.097 353H195.497L191.297 371H138.797L176.297 245H248.297ZM203.897 317H220.697L212.297 281.15L203.897 317ZM336.867 245V295.55H348.417C360.417 295.55 367.617 293.15 367.617 288.2C367.617 283.25 360.417 281 348.417 281H339.867L344.367 245H355.317C402.417 245 419.367 260.9 419.367 288.2C419.367 305 413.067 317.45 397.167 324.65L425.367 371H363.867L347.367 331.55H336.867V371H285.867V245H336.867ZM476.396 245V371H425.396V245H476.396ZM483.279 322.55C507.279 330.8 527.979 332.9 546.879 332.9C560.679 332.9 563.679 331.85 563.679 328.25C563.679 324.65 560.379 323.75 549.429 323.75C500.679 323.75 477.879 311.45 477.879 283.7C477.879 256.25 503.379 242 553.179 242C574.929 242 597.129 245.45 616.329 252.5L611.979 290.75C588.429 284 569.979 282.35 551.829 282.35C539.979 282.35 535.479 283.4 535.479 287C535.479 290.6 539.229 291.5 548.529 291.5C601.029 291.5 621.129 303.65 621.129 331.4C621.129 359.9 599.529 374 555.729 374C527.379 374 500.679 370.4 478.779 362L483.279 322.55ZM708.82 371H657.82V290H621.82V245H744.82V290H708.82V371ZM838.57 245L876.07 371H823.57L819.37 353H785.77L781.57 371H729.07L766.57 245H838.57ZM794.17 317H810.97L802.57 281.15L794.17 317ZM260.93 522.5V566H152.93V440H203.93V522.5H260.93ZM263.895 516.5V440H314.895V510.05C314.895 520.4 319.845 524.75 329.895 524.75C339.945 524.75 344.895 520.4 344.895 510.05V440H395.895V516.5C395.895 551 371.895 569 329.895 569C287.895 569 263.895 551 263.895 516.5ZM447.633 566H398.883V440H478.533C514.683 440 529.833 450.8 529.833 471.95C529.833 484.55 523.833 493.7 511.683 499.55C526.983 505.1 536.133 516.8 536.133 530.6C536.133 554.6 522.333 566 478.533 566H453.633L449.133 529.25H472.983C483.183 529.25 487.383 526.85 487.383 521.75C487.383 516.65 483.183 514.25 472.983 514.25H447.633V566ZM447.633 488H472.233C480.333 488 484.083 485.6 484.083 481.25C484.083 476.9 480.333 474.5 472.233 474.5H447.633V488Z" fill="#F8EEE1"/>
</g>
<defs>
<filter id="filter0_d_609_4793" x="-6.5" y="41" width="890.57" height="538" filterUnits="userSpaceOnUse" color-interpolation-filters="sRGB">
<feFlood flood-opacity="0" result="BackgroundImageFix"/>
<feColorMatrix in="SourceAlpha" type="matrix" values="0 0 0 0 0 0 0 0 0 0 0 0 0 0 0 0 0 0 127 0" result="hardAlpha"/>
<feOffset dy="2"/>
<feGaussianBlur stdDeviation="4"/>
<feComposite in2="hardAlpha" operator="out"/>
<feColorMatrix type="matrix" values="0 0 0 0 0.729167 0 0 0 0 0.729167 0 0 0 0 0.729167 0 0 0 1 0"/>
<feBlend mode="normal" in2="BackgroundImageFix" result="effect1_dropShadow_609_4793"/>
<feBlend mode="normal" in="SourceGraphic" in2="effect1_dropShadow_609_4793" result="shape"/>
</filter>
</defs>
</svg>
