<svg width="262" height="33" viewBox="0 0 262 33" fill="none" xmlns="http://www.w3.org/2000/svg">
<g clip-path="url(#clip0_441_3704)">
<path d="M16.9794 26.8794H13.5731V16.3169H5.29187V26.8794H1.88562V3.56689H5.29187V13.2231H13.5731V3.56689H16.9794V26.8794ZM34.5894 15.1919C34.5894 13.9419 34.4331 12.7231 34.1206 11.5356C33.829 10.3481 33.3915 9.34814 32.8081 8.53564C32.2665 7.72314 31.6102 7.11898 30.8394 6.72314C30.0685 6.32731 29.2769 6.12939 28.4644 6.12939C27.6519 6.12939 26.8498 6.32731 26.0581 6.72314C25.2873 7.11898 24.6415 7.72314 24.1206 8.53564C23.5373 9.34814 23.0894 10.3481 22.7769 11.5356C22.4644 12.7231 22.3081 13.9419 22.3081 15.1919C22.3081 16.4627 22.4644 17.6815 22.7769 18.8481C23.0894 20.0148 23.5373 21.0044 24.1206 21.8169C24.6415 22.6294 25.2873 23.244 26.0581 23.6606C26.8498 24.0565 27.6519 24.2544 28.4644 24.2544C29.2769 24.2544 30.0685 24.0565 30.8394 23.6606C31.6102 23.244 32.2665 22.6294 32.8081 21.8169C33.3915 21.0044 33.829 20.0148 34.1206 18.8481C34.4331 17.6815 34.5894 16.4627 34.5894 15.1919ZM38.0269 15.1919C38.0269 16.8377 37.7977 18.4211 37.3394 19.9419C36.9019 21.4627 36.256 22.7648 35.4019 23.8481C34.5477 24.9523 33.506 25.7961 32.2769 26.3794C31.0477 26.9419 29.7769 27.2231 28.4644 27.2231C27.131 27.2231 25.8498 26.9419 24.6206 26.3794C23.4123 25.7961 22.381 24.9523 21.5269 23.8481C20.6727 22.7648 20.0165 21.4627 19.5581 19.9419C19.1206 18.4211 18.9019 16.8377 18.9019 15.1919C18.9019 13.5669 19.1206 11.994 19.5581 10.4731C20.0165 8.95231 20.6727 7.63981 21.5269 6.53564C22.381 5.45231 23.4123 4.61898 24.6206 4.03564C25.8498 3.43148 27.131 3.12939 28.4644 3.12939C29.7769 3.12939 31.0477 3.43148 32.2769 4.03564C33.506 4.61898 34.5477 5.45231 35.4019 6.53564C36.256 7.63981 36.9019 8.95231 37.3394 10.4731C37.7977 11.994 38.0269 13.5669 38.0269 15.1919ZM59.9494 26.8794H56.7619V9.97314L51.3244 26.8794H48.6369L43.2306 9.97314V26.8794H40.0119V3.56689H44.1681L50.0119 21.6294L55.7619 3.56689H59.9494V26.8794ZM75.3406 26.8794H62.7781V3.56689H75.0906V6.66064H66.1844V13.1606H74.6844V16.2544H66.1844V23.7856H75.3406V26.8794ZM100.748 20.0669C100.748 21.8794 100.29 23.3169 99.3731 24.3794C98.4773 25.4419 97.3523 26.1815 95.9981 26.5981C95.5606 26.7023 95.0502 26.7752 94.4669 26.8169C93.8835 26.8586 93.4252 26.8794 93.0919 26.8794H86.4669V3.56689H92.7169C94.9252 3.56689 96.6752 4.10856 97.9669 5.19189C99.2585 6.27523 99.9044 7.83773 99.9044 9.87939C99.9044 11.0877 99.6231 12.0773 99.0606 12.8481C98.4981 13.5981 97.8002 14.1606 96.9669 14.5356C97.8419 14.8273 98.6856 15.4002 99.4981 16.2544C100.331 17.0877 100.748 18.3586 100.748 20.0669ZM89.8419 23.8481H92.7169C92.9669 23.8481 93.3106 23.8377 93.7481 23.8169C94.2065 23.7752 94.5502 23.7127 94.7794 23.6294C95.6752 23.3377 96.321 22.8794 96.7169 22.2544C97.1335 21.6294 97.3419 20.9002 97.3419 20.0669C97.3419 19.1919 97.1335 18.4523 96.7169 17.8481C96.321 17.244 95.6752 16.7961 94.7794 16.5044C94.5502 16.4211 94.2273 16.3481 93.8106 16.2856C93.394 16.2231 93.0294 16.1919 92.7169 16.1919H89.8419V23.8481ZM96.5294 9.87939C96.5294 8.83773 96.2585 8.06689 95.7169 7.56689C95.1752 7.06689 94.4252 6.76481 93.4669 6.66064C93.2377 6.63981 92.9877 6.62939 92.7169 6.62939C92.4669 6.60856 92.2481 6.59814 92.0606 6.59814H89.8419V13.1606H92.1544C92.321 13.1606 92.5294 13.1606 92.7794 13.1606C93.0502 13.1606 93.2794 13.1502 93.4669 13.1294C94.3835 13.0044 95.1231 12.6711 95.6856 12.1294C96.2481 11.5669 96.5294 10.8169 96.5294 9.87939ZM118.952 26.8794H115.389L113.233 19.8794H106.389L104.296 26.8794H100.733L108.171 3.56689H111.514L118.952 26.8794ZM112.327 16.7856L109.858 8.53564L107.358 16.7856H112.327ZM134.124 10.4106C134.124 11.494 133.885 12.4836 133.406 13.3794C132.926 14.2544 132.301 14.9523 131.531 15.4731C131.072 15.744 130.697 15.9419 130.406 16.0669C131.489 16.6919 132.322 17.8065 132.906 19.4106C133.656 21.4523 134.26 23.9419 134.718 26.8794H131.187C130.604 23.0252 129.895 20.494 129.062 19.2856C128.166 17.9731 127.093 17.3169 125.843 17.3169H124.156V14.1294H125.968C126.676 14.1294 127.301 14.0669 127.843 13.9419C128.385 13.8169 128.854 13.5981 129.249 13.2856C129.666 13.0148 130.01 12.6294 130.281 12.1294C130.572 11.6086 130.718 11.0356 130.718 10.4106C130.718 9.70231 130.572 9.10856 130.281 8.62939C130.01 8.15023 129.666 7.77523 129.249 7.50439C128.812 7.19189 128.312 6.97314 127.749 6.84814C127.208 6.70231 126.687 6.62939 126.187 6.62939H123.468V26.8794H120.062V3.56689H126.124C127.124 3.56689 128.083 3.69189 128.999 3.94189C129.916 4.19189 130.749 4.55648 131.499 5.03564C132.291 5.57731 132.926 6.28564 133.406 7.16064C133.885 8.01481 134.124 9.09814 134.124 10.4106ZM139.672 26.8794H136.266V3.56689H139.672V26.8794ZM155.251 20.3794C155.251 22.7127 154.521 24.4419 153.063 25.5669C151.626 26.6711 149.688 27.2231 147.251 27.2231C146.334 27.2231 145.407 27.119 144.469 26.9106C143.532 26.7023 142.646 26.4627 141.813 26.1919V22.6294C142.771 23.0461 143.636 23.3794 144.407 23.6294C144.824 23.7544 145.313 23.8794 145.876 24.0044C146.438 24.1086 146.98 24.1606 147.501 24.1606C148.063 24.1606 148.584 24.1086 149.063 24.0044C149.563 23.9002 150.011 23.7023 150.407 23.4106C150.782 23.1606 151.105 22.8273 151.376 22.4106C151.646 21.9731 151.782 21.4315 151.782 20.7856C151.782 20.1606 151.657 19.6294 151.407 19.1919C151.157 18.7544 150.855 18.3898 150.501 18.0981C149.73 17.4315 148.907 16.869 148.032 16.4106C147.428 16.0773 146.751 15.7023 146.001 15.2856C145.271 14.8481 144.574 14.3586 143.907 13.8169C143.24 13.2752 142.688 12.6398 142.251 11.9106C141.834 11.1606 141.626 10.3169 141.626 9.37939C141.626 7.23356 142.271 5.66064 143.563 4.66064C144.855 3.63981 146.521 3.12939 148.563 3.12939C149.084 3.12939 149.605 3.18148 150.126 3.28564C150.646 3.36898 151.115 3.46273 151.532 3.56689C152.324 3.75439 153.126 3.98356 153.938 4.25439V7.62939C153.146 7.19189 152.251 6.83773 151.251 6.56689C150.251 6.27523 149.292 6.12939 148.376 6.12939C147.417 6.12939 146.615 6.40023 145.969 6.94189C145.324 7.46273 145.001 8.20231 145.001 9.16064C145.001 9.55648 145.094 9.91064 145.282 10.2231C145.49 10.5148 145.73 10.7961 146.001 11.0669C146.292 11.3794 146.626 11.6711 147.001 11.9419C147.376 12.1919 147.792 12.4315 148.251 12.6606C149.709 13.4523 150.813 14.0981 151.563 14.5981C152.313 15.0773 152.928 15.5461 153.407 16.0044C153.969 16.5252 154.407 17.1294 154.719 17.8169C155.032 18.4836 155.209 19.3377 155.251 20.3794ZM171.736 6.66064H165.361V26.8794H161.954V6.66064H155.548V3.56689H171.736V6.66064ZM187.127 26.8794H183.564L181.408 19.8794H174.564L172.471 26.8794H168.908L176.346 3.56689H179.689L187.127 26.8794ZM180.502 16.7856L178.033 8.53564L175.533 16.7856H180.502ZM213.128 10.5981H209.597C209.597 9.59814 209.472 8.85856 209.222 8.37939C208.993 7.87939 208.711 7.46273 208.378 7.12939C208.003 6.83773 207.576 6.61898 207.097 6.47314C206.639 6.30648 206.191 6.21273 205.753 6.19189C204.961 6.19189 204.201 6.35856 203.472 6.69189C202.764 7.02523 202.118 7.56689 201.534 8.31689C200.951 9.08773 200.493 10.0773 200.159 11.2856C199.826 12.4731 199.659 13.6606 199.659 14.8481C199.659 15.619 199.753 16.5461 199.941 17.6294C200.128 18.7127 200.472 19.7752 200.972 20.8169C201.493 21.7752 202.191 22.5877 203.066 23.2544C203.941 23.9002 205.066 24.2231 206.441 24.2231C207.441 24.2231 208.389 24.0565 209.284 23.7231C210.18 23.369 211.222 22.8273 212.409 22.0981V25.6919C212.055 25.8794 211.711 26.0565 211.378 26.2231C211.066 26.3898 210.639 26.5565 210.097 26.7231C208.847 27.0773 207.42 27.2544 205.816 27.2544C204.149 27.2544 202.701 26.8898 201.472 26.1606C200.264 25.4315 199.243 24.4627 198.409 23.2544C197.597 22.0461 197.024 20.7231 196.691 19.2856C196.378 17.8481 196.222 16.369 196.222 14.8481C196.222 13.3273 196.399 11.869 196.753 10.4731C197.107 9.07731 197.691 7.84814 198.503 6.78564C199.295 5.74398 200.295 4.87939 201.503 4.19189C202.711 3.48356 204.128 3.12939 205.753 3.12939C206.732 3.12939 207.67 3.30648 208.566 3.66064C209.461 3.99398 210.243 4.46273 210.909 5.06689C211.576 5.67106 212.107 6.40023 212.503 7.25439C212.92 8.08773 213.128 9.20231 213.128 10.5981ZM227.488 26.8794H214.894V3.56689H218.301V23.7856H227.488V26.8794ZM236.067 24.1294C236.859 24.1711 237.536 24.0148 238.098 23.6606C238.681 23.3065 239.14 22.869 239.473 22.3481C239.786 21.7023 240.015 21.0148 240.161 20.2856C240.327 19.5356 240.411 18.7336 240.411 17.8794V3.56689H243.817V18.0669C243.817 19.0461 243.723 20.0669 243.536 21.1294C243.348 22.1919 242.973 23.1711 242.411 24.0669C241.827 24.9836 241.015 25.744 239.973 26.3481C238.952 26.9315 237.65 27.2231 236.067 27.2231C234.484 27.2231 233.171 26.9315 232.129 26.3481C231.109 25.744 230.306 24.9836 229.723 24.0669C229.161 23.1711 228.786 22.1919 228.598 21.1294C228.431 20.0461 228.348 19.0252 228.348 18.0669V3.56689H231.754V17.8794C231.754 18.7336 231.827 19.5356 231.973 20.2856C232.119 21.0148 232.359 21.7023 232.692 22.3481C233.004 22.869 233.442 23.2961 234.004 23.6294C234.567 23.9627 235.254 24.1294 236.067 24.1294ZM260.896 20.0669C260.896 21.8794 260.437 23.3169 259.521 24.3794C258.625 25.4419 257.5 26.1815 256.146 26.5981C255.708 26.7023 255.198 26.7752 254.614 26.8169C254.031 26.8586 253.573 26.8794 253.239 26.8794H246.614V3.56689H252.864C255.073 3.56689 256.823 4.10856 258.114 5.19189C259.406 6.27523 260.052 7.83773 260.052 9.87939C260.052 11.0877 259.771 12.0773 259.208 12.8481C258.646 13.5981 257.948 14.1606 257.114 14.5356C257.989 14.8273 258.833 15.4002 259.646 16.2544C260.479 17.0877 260.896 18.3586 260.896 20.0669ZM249.989 23.8481H252.864C253.114 23.8481 253.458 23.8377 253.896 23.8169C254.354 23.7752 254.698 23.7127 254.927 23.6294C255.823 23.3377 256.469 22.8794 256.864 22.2544C257.281 21.6294 257.489 20.9002 257.489 20.0669C257.489 19.1919 257.281 18.4523 256.864 17.8481C256.469 17.244 255.823 16.7961 254.927 16.5044C254.698 16.4211 254.375 16.3481 253.958 16.2856C253.541 16.2231 253.177 16.1919 252.864 16.1919H249.989V23.8481ZM256.677 9.87939C256.677 8.83773 256.406 8.06689 255.864 7.56689C255.323 7.06689 254.573 6.76481 253.614 6.66064C253.385 6.63981 253.135 6.62939 252.864 6.62939C252.614 6.60856 252.396 6.59814 252.208 6.59814H249.989V13.1606H252.302C252.469 13.1606 252.677 13.1606 252.927 13.1606C253.198 13.1606 253.427 13.1502 253.614 13.1294C254.531 13.0044 255.271 12.6711 255.833 12.1294C256.396 11.5669 256.677 10.8169 256.677 9.87939Z" fill="#B3986D"/>
</g>
<defs>
<clipPath id="clip0_441_3704">
<rect width="262" height="32" fill="white" transform="translate(0 0.504395)"/>
</clipPath>
</defs>
</svg>
