<svg width="299" height="34" viewBox="0 0 299 34" fill="none" xmlns="http://www.w3.org/2000/svg">
<g clip-path="url(#clip0_609_5263)">
<path d="M7.652 26.1898H0.501996V7.7098H7.652V13.7598H13.592V7.7098H20.742V26.1898H13.592V19.6998H7.652V26.1898ZM31.9611 26.6298C25.4271 26.6298 21.1811 22.9558 20.9611 17.3678H28.6831C28.8371 18.7978 30.0031 20.0298 31.9611 20.0298C34.0511 20.0298 35.2611 18.5778 35.2611 16.9278C35.2611 15.2778 34.0731 13.8698 31.9611 13.8698C29.9811 13.8698 28.7051 15.1238 28.6831 17.1478L20.9611 16.4878C21.2031 10.9218 25.4491 7.2698 31.9611 7.2698C38.6491 7.2698 42.9611 11.1198 42.9611 16.9498C42.9611 22.7798 38.6491 26.6298 31.9611 26.6298ZM43.1708 7.7098H51.5308L55.0508 17.3018L58.5708 7.7098H66.9308V26.1898H60.1108V16.5758L57.1408 26.1898H52.9608L49.9908 16.5758V26.1898H43.1708V7.7098ZM83.9834 13.3198H74.5234V14.6398H83.7634V19.0398H74.5234V20.3598H84.0934V26.1898H67.3734V7.7098H83.9834V13.3198ZM95.6434 26.1898H88.4934V7.7098H100.175C105.477 7.7098 107.699 9.2938 107.699 12.3958C107.699 14.2438 106.819 15.5858 105.037 16.4438C107.281 17.2578 108.623 18.9738 108.623 20.9978C108.623 24.5178 106.599 26.1898 100.175 26.1898H96.5234L95.8634 20.7998H99.3614C100.857 20.7998 101.473 20.4478 101.473 19.6998C101.473 18.9518 100.857 18.5998 99.3614 18.5998H95.6434V26.1898ZM95.6434 14.7498H99.2514C100.439 14.7498 100.989 14.3978 100.989 13.7598C100.989 13.1218 100.439 12.7698 99.2514 12.7698H95.6434V14.7498ZM124.47 7.7098L129.97 26.1898H122.27L121.654 23.5498H116.726L116.11 26.1898H108.41L113.91 7.7098H124.47ZM117.958 18.2698H120.422L119.19 13.0118L117.958 18.2698ZM137.461 7.7098V15.1238H139.155C140.915 15.1238 141.971 14.7718 141.971 14.0458C141.971 13.3198 140.915 12.9898 139.155 12.9898H137.901L138.561 7.7098H140.167C147.075 7.7098 149.561 10.0418 149.561 14.0458C149.561 16.5098 148.637 18.3358 146.305 19.3918L150.441 26.1898H141.421L139.001 20.4038H137.461V26.1898H129.981V7.7098H137.461ZM157.925 7.7098V26.1898H150.445V7.7098H157.925ZM158.934 19.0838C162.454 20.2938 165.49 20.6018 168.262 20.6018C170.286 20.6018 170.726 20.4478 170.726 19.9198C170.726 19.3918 170.242 19.2598 168.636 19.2598C161.486 19.2598 158.142 17.4558 158.142 13.3858C158.142 9.3598 161.882 7.2698 169.186 7.2698C172.376 7.2698 175.632 7.7758 178.448 8.8098L177.81 14.4198C174.356 13.4298 171.65 13.1878 168.988 13.1878C167.25 13.1878 166.59 13.3418 166.59 13.8698C166.59 14.3978 167.14 14.5298 168.504 14.5298C176.204 14.5298 179.152 16.3118 179.152 20.3818C179.152 24.5618 175.984 26.6298 169.56 26.6298C165.402 26.6298 161.486 26.1018 158.274 24.8698L158.934 19.0838ZM192.014 26.1898H184.534V14.3098H179.254V7.7098H197.294V14.3098H192.014V26.1898ZM211.044 7.7098L216.544 26.1898H208.844L208.228 23.5498H203.3L202.684 26.1898H194.984L200.484 7.7098H211.044ZM204.532 18.2698H206.996L205.764 13.0118L204.532 18.2698ZM231.298 26.6298C224.632 26.6298 220.298 22.7798 220.298 16.9498C220.298 11.1198 224.632 7.2698 231.298 7.2698C237.084 7.2698 240.846 10.1298 241.836 14.6398L234.532 16.3558C234.29 15.0358 233.168 13.8698 231.298 13.8698C229.164 13.8698 228.042 15.3878 228.02 16.9498C227.998 18.5118 229.164 20.0298 231.298 20.0298C233.19 20.0298 234.312 18.8418 234.554 17.4998L241.836 19.2158C240.868 23.7478 237.084 26.6298 231.298 26.6298ZM258.348 19.8098V26.1898H242.508V7.7098H249.988V19.8098H258.348ZM258.783 18.9298V7.7098H266.263V17.9838C266.263 19.5018 266.989 20.1398 268.463 20.1398C269.937 20.1398 270.663 19.5018 270.663 17.9838V7.7098H278.143V18.9298C278.143 23.9898 274.623 26.6298 268.463 26.6298C262.303 26.6298 258.783 23.9898 258.783 18.9298ZM285.731 26.1898H278.581V7.7098H290.263C295.565 7.7098 297.787 9.2938 297.787 12.3958C297.787 14.2438 296.907 15.5858 295.125 16.4438C297.369 17.2578 298.711 18.9738 298.711 20.9978C298.711 24.5178 296.687 26.1898 290.263 26.1898H286.611L285.951 20.7998H289.449C290.945 20.7998 291.561 20.4478 291.561 19.6998C291.561 18.9518 290.945 18.5998 289.449 18.5998H285.731V26.1898ZM285.731 14.7498H289.339C290.527 14.7498 291.077 14.3978 291.077 13.7598C291.077 13.1218 290.527 12.7698 289.339 12.7698H285.731V14.7498Z" fill="#333333"/>
</g>
<defs>
<clipPath id="clip0_609_5263">
<rect width="299" height="34" fill="white"/>
</clipPath>
</defs>
</svg>
