<svg width="141" height="17" viewBox="0 0 141 17" fill="none" xmlns="http://www.w3.org/2000/svg">
<g clip-path="url(#clip0_441_10489)">
<path d="M9.92654 14.668H8.11697V9.05664H3.71756V14.668H1.90799V2.2832H3.71756V7.41309H8.11697V2.2832H9.92654V14.668ZM19.2819 8.45898C19.2819 7.79492 19.1988 7.14746 19.0328 6.5166C18.8779 5.88574 18.6455 5.35449 18.3356 4.92285C18.0478 4.49121 17.6992 4.17025 17.2897 3.95996C16.8802 3.74967 16.4596 3.64453 16.028 3.64453C15.5963 3.64453 15.1702 3.74967 14.7496 3.95996C14.3401 4.17025 13.997 4.49121 13.7203 4.92285C13.4104 5.35449 13.1725 5.88574 13.0065 6.5166C12.8405 7.14746 12.7574 7.79492 12.7574 8.45898C12.7574 9.13411 12.8405 9.78158 13.0065 10.4014C13.1725 11.0212 13.4104 11.5469 13.7203 11.9785C13.997 12.4102 14.3401 12.7367 14.7496 12.958C15.1702 13.1683 15.5963 13.2734 16.028 13.2734C16.4596 13.2734 16.8802 13.1683 17.2897 12.958C17.6992 12.7367 18.0478 12.4102 18.3356 11.9785C18.6455 11.5469 18.8779 11.0212 19.0328 10.4014C19.1988 9.78158 19.2819 9.13411 19.2819 8.45898ZM21.108 8.45898C21.108 9.33333 20.9863 10.1745 20.7428 10.9824C20.5104 11.7904 20.1673 12.4821 19.7135 13.0576C19.2597 13.6442 18.7063 14.0924 18.0533 14.4023C17.4003 14.7012 16.7252 14.8506 16.028 14.8506C15.3196 14.8506 14.639 14.7012 13.986 14.4023C13.344 14.0924 12.7962 13.6442 12.3424 13.0576C11.8886 12.4821 11.54 11.7904 11.2965 10.9824C11.0641 10.1745 10.9479 9.33333 10.9479 8.45898C10.9479 7.5957 11.0641 6.76009 11.2965 5.95215C11.54 5.14421 11.8886 4.44694 12.3424 3.86035C12.7962 3.28483 13.344 2.84212 13.986 2.53223C14.639 2.21126 15.3196 2.05078 16.028 2.05078C16.7252 2.05078 17.4003 2.21126 18.0533 2.53223C18.7063 2.84212 19.2597 3.28483 19.7135 3.86035C20.1673 4.44694 20.5104 5.14421 20.7428 5.95215C20.9863 6.76009 21.108 7.5957 21.108 8.45898ZM32.7544 14.668H31.061V5.68652L28.1723 14.668H26.7446L23.8725 5.68652V14.668H22.1626V2.2832H24.3706L27.4751 11.8789L30.5297 2.2832H32.7544V14.668ZM40.931 14.668H34.2571V2.2832H40.7981V3.92676H36.0667V7.37988H40.5823V9.02344H36.0667V13.0244H40.931V14.668ZM54.4287 11.0488C54.4287 12.0117 54.1852 12.7754 53.6982 13.3398C53.2223 13.9043 52.6247 14.2972 51.9053 14.5186C51.6728 14.5739 51.4017 14.6126 51.0918 14.6348C50.7819 14.6569 50.5384 14.668 50.3613 14.668H46.8418V2.2832H50.1621C51.3353 2.2832 52.265 2.57096 52.9512 3.14648C53.6374 3.72201 53.9804 4.55208 53.9804 5.63672C53.9804 6.27865 53.831 6.80436 53.5322 7.21387C53.2334 7.6123 52.8626 7.91113 52.4199 8.11035C52.8847 8.2653 53.333 8.56966 53.7646 9.02344C54.2073 9.46615 54.4287 10.1413 54.4287 11.0488ZM48.6347 13.0576H50.1621C50.2949 13.0576 50.4775 13.0521 50.7099 13.041C50.9534 13.0189 51.136 12.9857 51.2578 12.9414C51.7337 12.7865 52.0768 12.543 52.2871 12.2109C52.5084 11.8789 52.6191 11.4915 52.6191 11.0488C52.6191 10.584 52.5084 10.1911 52.2871 9.87012C52.0768 9.54915 51.7337 9.3112 51.2578 9.15625C51.136 9.11198 50.9645 9.07324 50.7431 9.04004C50.5218 9.00684 50.3281 8.99023 50.1621 8.99023H48.6347V13.0576ZM52.1875 5.63672C52.1875 5.08333 52.0436 4.67383 51.7558 4.4082C51.4681 4.14258 51.0696 3.9821 50.5605 3.92676C50.4388 3.91569 50.306 3.91016 50.1621 3.91016C50.0293 3.89909 49.9131 3.89355 49.8135 3.89355H48.6347V7.37988H49.8633C49.9518 7.37988 50.0625 7.37988 50.1953 7.37988C50.3392 7.37988 50.4609 7.37435 50.5605 7.36328C51.0475 7.29688 51.4404 7.11979 51.7392 6.83203C52.0381 6.5332 52.1875 6.13477 52.1875 5.63672ZM64.0994 14.668H62.2069L61.0613 10.9492H57.4256L56.3133 14.668H54.4207L58.3719 2.2832H60.1483L64.0994 14.668ZM60.5799 9.30566L59.2684 4.92285L57.9403 9.30566H60.5799ZM72.1598 5.91895C72.1598 6.49447 72.0325 7.02018 71.778 7.49609C71.5234 7.96094 71.1914 8.33171 70.7819 8.6084C70.5384 8.75228 70.3392 8.85742 70.1842 8.92383C70.7598 9.25586 71.2025 9.84798 71.5124 10.7002C71.9108 11.7848 72.2318 13.1074 72.4753 14.668H70.5993C70.2894 12.6204 69.9131 11.2757 69.4704 10.6338C68.9945 9.93652 68.4245 9.58789 67.7604 9.58789H66.8639V7.89453H67.8268C68.2031 7.89453 68.5351 7.86133 68.8229 7.79492C69.1107 7.72852 69.3597 7.6123 69.57 7.44629C69.7913 7.30241 69.974 7.09766 70.1178 6.83203C70.2728 6.55534 70.3503 6.25098 70.3503 5.91895C70.3503 5.54264 70.2728 5.22721 70.1178 4.97266C69.974 4.7181 69.7913 4.51888 69.57 4.375C69.3376 4.20898 69.0719 4.09277 68.7731 4.02637C68.4853 3.94889 68.2087 3.91016 67.943 3.91016H66.4987V14.668H64.6891V2.2832H67.9098C68.4411 2.2832 68.9502 2.34961 69.4372 2.48242C69.9241 2.61523 70.3669 2.80892 70.7653 3.06348C71.1859 3.35124 71.5234 3.72754 71.778 4.19238C72.0325 4.64616 72.1598 5.22168 72.1598 5.91895ZM75.1069 14.668H73.2974V2.2832H75.1069V14.668ZM83.3831 11.2148C83.3831 12.4544 82.9958 13.373 82.221 13.9707C81.4574 14.5573 80.4281 14.8506 79.1331 14.8506C78.6462 14.8506 78.1537 14.7952 77.6556 14.6846C77.1576 14.5739 76.6872 14.4466 76.2445 14.3027V12.4102C76.7536 12.6315 77.2129 12.8086 77.6224 12.9414C77.8438 13.0078 78.1039 13.0742 78.4027 13.1406C78.7015 13.196 78.9893 13.2236 79.266 13.2236C79.5648 13.2236 79.8415 13.196 80.096 13.1406C80.3617 13.0853 80.5996 12.9801 80.8099 12.8252C81.0091 12.6924 81.1807 12.5153 81.3246 12.2939C81.4684 12.0615 81.5404 11.7738 81.5404 11.4307C81.5404 11.0986 81.474 10.8164 81.3412 10.584C81.2083 10.3516 81.0479 10.1579 80.8597 10.0029C80.4502 9.64876 80.013 9.34993 79.5482 9.10645C79.2272 8.92936 78.8675 8.73014 78.4691 8.50879C78.0817 8.27637 77.7109 8.01628 77.3568 7.72852C77.0026 7.44076 76.7093 7.10319 76.4769 6.71582C76.2555 6.31738 76.1449 5.86914 76.1449 5.37109C76.1449 4.23112 76.488 3.39551 77.1742 2.86426C77.8604 2.32194 78.7458 2.05078 79.8304 2.05078C80.1071 2.05078 80.3838 2.07845 80.6605 2.13379C80.9372 2.17806 81.1862 2.22786 81.4076 2.2832C81.8281 2.38281 82.2542 2.50456 82.6859 2.64844V4.44141C82.2653 4.20898 81.7894 4.02083 81.2581 3.87695C80.7269 3.72201 80.2178 3.64453 79.7308 3.64453C79.2217 3.64453 78.7956 3.78841 78.4525 4.07617C78.1094 4.35286 77.9378 4.74577 77.9378 5.25488C77.9378 5.46517 77.9876 5.65332 78.0872 5.81934C78.1979 5.97428 78.3252 6.1237 78.4691 6.26758C78.624 6.43359 78.8011 6.58854 79.0003 6.73242C79.1996 6.86523 79.4209 6.99251 79.6644 7.11426C80.4391 7.53483 81.0257 7.87793 81.4242 8.14355C81.8226 8.39811 82.1491 8.64714 82.4037 8.89062C82.7025 9.16732 82.9349 9.48828 83.1009 9.85352C83.2669 10.2077 83.361 10.6615 83.3831 11.2148ZM92.1408 3.92676H88.7541V14.668H86.9445V3.92676H83.5412V2.2832H92.1408V3.92676ZM100.317 14.668H98.4248L97.2793 10.9492H93.6436L92.5313 14.668H90.6387L94.5899 2.2832H96.3662L100.317 14.668ZM96.7979 9.30566L95.4864 4.92285L94.1582 9.30566H96.7979ZM114.131 6.01855H112.255C112.255 5.4873 112.188 5.0944 112.055 4.83984C111.934 4.57422 111.784 4.35286 111.607 4.17578C111.408 4.02083 111.181 3.90462 110.926 3.82715C110.683 3.73861 110.445 3.6888 110.213 3.67773C109.792 3.67773 109.388 3.76628 109.001 3.94336C108.624 4.12044 108.281 4.4082 107.971 4.80664C107.661 5.21615 107.418 5.74186 107.241 6.38379C107.064 7.01465 106.975 7.64551 106.975 8.27637C106.975 8.68587 107.025 9.17839 107.125 9.75391C107.224 10.3294 107.407 10.8939 107.673 11.4473C107.949 11.9564 108.32 12.388 108.785 12.7422C109.25 13.0853 109.847 13.2568 110.578 13.2568C111.109 13.2568 111.613 13.1683 112.089 12.9912C112.564 12.8031 113.118 12.5153 113.749 12.1279V14.0371C113.561 14.1367 113.378 14.2308 113.201 14.3193C113.035 14.4079 112.808 14.4964 112.52 14.585C111.856 14.7731 111.098 14.8672 110.246 14.8672C109.36 14.8672 108.591 14.6735 107.938 14.2861C107.296 13.8988 106.754 13.3841 106.311 12.7422C105.88 12.1003 105.575 11.3975 105.398 10.6338C105.232 9.87012 105.149 9.08431 105.149 8.27637C105.149 7.46842 105.243 6.69368 105.431 5.95215C105.62 5.21061 105.929 4.55762 106.361 3.99316C106.782 3.43978 107.313 2.98047 107.955 2.61523C108.597 2.23893 109.349 2.05078 110.213 2.05078C110.733 2.05078 111.231 2.14486 111.707 2.33301C112.183 2.51009 112.598 2.75911 112.952 3.08008C113.306 3.40104 113.588 3.78841 113.799 4.24219C114.02 4.6849 114.131 5.27702 114.131 6.01855ZM121.759 14.668H115.069V2.2832H116.878V13.0244H121.759V14.668ZM126.317 13.207C126.737 13.2292 127.097 13.1462 127.396 12.958C127.706 12.7699 127.949 12.5374 128.126 12.2607C128.292 11.9176 128.414 11.5524 128.492 11.165C128.58 10.7666 128.624 10.3405 128.624 9.88672V2.2832H130.434V9.98633C130.434 10.5065 130.384 11.0488 130.285 11.6133C130.185 12.1777 129.986 12.6979 129.687 13.1738C129.377 13.6608 128.945 14.0648 128.392 14.3857C127.85 14.6956 127.158 14.8506 126.317 14.8506C125.476 14.8506 124.778 14.6956 124.225 14.3857C123.683 14.0648 123.257 13.6608 122.947 13.1738C122.648 12.6979 122.449 12.1777 122.349 11.6133C122.26 11.0378 122.216 10.4954 122.216 9.98633V2.2832H124.026V9.88672C124.026 10.3405 124.065 10.7666 124.142 11.165C124.219 11.5524 124.347 11.9176 124.524 12.2607C124.69 12.5374 124.922 12.7643 125.221 12.9414C125.52 13.1185 125.885 13.207 126.317 13.207ZM139.507 11.0488C139.507 12.0117 139.264 12.7754 138.777 13.3398C138.301 13.9043 137.703 14.2972 136.984 14.5186C136.751 14.5739 136.48 14.6126 136.17 14.6348C135.86 14.6569 135.617 14.668 135.44 14.668H131.92V2.2832H135.24C136.414 2.2832 137.343 2.57096 138.03 3.14648C138.716 3.72201 139.059 4.55208 139.059 5.63672C139.059 6.27865 138.909 6.80436 138.611 7.21387C138.312 7.6123 137.941 7.91113 137.498 8.11035C137.963 8.2653 138.411 8.56966 138.843 9.02344C139.286 9.46615 139.507 10.1413 139.507 11.0488ZM133.713 13.0576H135.24C135.373 13.0576 135.556 13.0521 135.788 13.041C136.032 13.0189 136.214 12.9857 136.336 12.9414C136.812 12.7865 137.155 12.543 137.365 12.2109C137.587 11.8789 137.697 11.4915 137.697 11.0488C137.697 10.584 137.587 10.1911 137.365 9.87012C137.155 9.54915 136.812 9.3112 136.336 9.15625C136.214 9.11198 136.043 9.07324 135.822 9.04004C135.6 9.00684 135.406 8.99023 135.24 8.99023H133.713V13.0576ZM137.266 5.63672C137.266 5.08333 137.122 4.67383 136.834 4.4082C136.546 4.14258 136.148 3.9821 135.639 3.92676C135.517 3.91569 135.384 3.91016 135.24 3.91016C135.108 3.89909 134.991 3.89355 134.892 3.89355H133.713V7.37988H134.942C135.03 7.37988 135.141 7.37988 135.274 7.37988C135.418 7.37988 135.539 7.37435 135.639 7.36328C136.126 7.29688 136.519 7.11979 136.818 6.83203C137.116 6.5332 137.266 6.13477 137.266 5.63672Z" fill="#B3986D"/>
</g>
<defs>
<clipPath id="clip0_441_10489">
<rect width="140" height="17" fill="white" transform="translate(0.5)"/>
</clipPath>
</defs>
</svg>
