<svg width="25" height="26" viewBox="0 0 25 26" fill="none" xmlns="http://www.w3.org/2000/svg">
<path d="M18.9931 19.6336C19.0105 19.8062 18.9949 19.9811 18.9473 20.1465C18.8997 20.312 18.8212 20.4644 18.717 20.5936C18.6126 20.7227 18.4847 20.8256 18.342 20.8956C18.1992 20.9656 18.0448 21.0011 17.8888 20.9998H7.11116C6.95521 21.0011 6.80077 20.9656 6.65802 20.8956C6.51527 20.8256 6.38745 20.7227 6.28296 20.5936C6.17875 20.4644 6.10028 20.312 6.05269 20.1465C6.00511 19.9811 5.9895 19.8062 6.00689 19.6336L6.97865 9.92236H18.0214L18.9931 19.6336Z" stroke="#333333" stroke-linecap="round" stroke-linejoin="round"/>
<path d="M9.73633 9.9233V8.07706C9.73633 7.26097 10.0272 6.47831 10.5449 5.90125C11.0626 5.32419 11.7648 5 12.497 5C13.2292 5 13.9314 5.32419 14.4491 5.90125C14.9668 6.47831 15.2577 7.26097 15.2577 8.07706V9.9233" stroke="#333333" stroke-linecap="round" stroke-linejoin="round"/>
</svg>
