<svg width="97" height="28" viewBox="0 0 97 28" fill="none" xmlns="http://www.w3.org/2000/svg">
<path d="M10.6721 26.6H0.922071V1.4H10.6721V9.65H18.7721V1.4H28.5221V26.6H18.7721V17.75H10.6721V26.6ZM44.2768 26.6H34.5268V1.4H50.4568C57.6868 1.4 60.7168 3.56 60.7168 7.79C60.7168 10.31 59.5168 12.14 57.0868 13.31C60.1468 14.42 61.9768 16.76 61.9768 19.52C61.9768 24.32 59.2168 26.6 50.4568 26.6H45.4768L44.5768 19.25H49.3468C51.3868 19.25 52.2268 18.77 52.2268 17.75C52.2268 16.73 51.3868 16.25 49.3468 16.25H44.2768V26.6ZM44.2768 11H49.1968C50.8168 11 51.5668 10.52 51.5668 9.65C51.5668 8.78 50.8168 8.3 49.1968 8.3H44.2768V11ZM82.392 27.2C73.302 27.2 67.392 21.95 67.392 14C67.392 6.05 73.302 0.8 82.392 0.8C90.282 0.8 95.412 4.7 96.762 10.85L86.802 13.19C86.472 11.39 84.942 9.8 82.392 9.8C79.482 9.8 77.952 11.87 77.922 14C77.892 16.13 79.482 18.2 82.392 18.2C84.972 18.2 86.502 16.58 86.832 14.75L96.762 17.09C95.442 23.27 90.282 27.2 82.392 27.2Z" fill="#333333"/>
</svg>
