<svg width="78" height="32" viewBox="0 0 78 32" fill="none" xmlns="http://www.w3.org/2000/svg">
<path d="M6.9 25.1402H0.4V8.34023H6.9V13.8402H12.3V8.34023H18.8V25.1402H12.3V19.2402H6.9V25.1402ZM19.1992 20.1202H25.1992V25.1202H19.1992V20.1202ZM35.7 25.1402H29.2V8.34023H39.82C44.64 8.34023 46.66 9.78023 46.66 12.6002C46.66 14.2802 45.86 15.5002 44.24 16.2802C46.28 17.0202 47.5 18.5802 47.5 20.4202C47.5 23.6202 45.66 25.1402 39.82 25.1402H36.5L35.9 20.2402H39.08C40.44 20.2402 41 19.9202 41 19.2402C41 18.5602 40.44 18.2402 39.08 18.2402H35.7V25.1402ZM35.7 14.7402H38.98C40.06 14.7402 40.56 14.4202 40.56 13.8402C40.56 13.2602 40.06 12.9402 38.98 12.9402H35.7V14.7402ZM47.7063 20.1202H53.7063V25.1202H47.7063V20.1202ZM67.507 25.5402C61.447 25.5402 57.507 22.0402 57.507 16.7402C57.507 11.4402 61.447 7.94023 67.507 7.94023C72.767 7.94023 76.187 10.5402 77.087 14.6402L70.447 16.2002C70.227 15.0002 69.207 13.9402 67.507 13.9402C65.567 13.9402 64.547 15.3202 64.527 16.7402C64.507 18.1602 65.567 19.5402 67.507 19.5402C69.227 19.5402 70.247 18.4602 70.467 17.2402L77.087 18.8002C76.207 22.9202 72.767 25.5402 67.507 25.5402Z" fill="#333333"/>
</svg>
