<svg width="64" height="12" viewBox="0 0 64 12" fill="none" xmlns="http://www.w3.org/2000/svg">
<g clip-path="url(#clip0_315_2213)">
<path d="M2.24373 12.0539L3.66722 7.42234L0 4.33155H4.52492L6 -0.0527344L7.47508 4.33155H12L8.33278 7.42234L9.75627 12.0539L6 9.20691L2.24373 12.0539Z" fill="#B3986D"/>
<path d="M15.2437 12.0539L16.6672 7.42234L13 4.33155H17.5249L19 -0.0527344L20.4751 4.33155H25L21.3328 7.42234L22.7563 12.0539L19 9.20691L15.2437 12.0539Z" fill="#B3986D"/>
<path d="M28.2437 12.0539L29.6672 7.42234L26 4.33155H30.5249L32 -0.0527344L33.4751 4.33155H38L34.3328 7.42234L35.7563 12.0539L32 9.20691L28.2437 12.0539Z" fill="#B3986D"/>
<path d="M41.2437 12.0539L42.6672 7.42234L39 4.33155H43.5249L45 -0.0527344L46.4751 4.33155H51L47.3328 7.42234L48.7563 12.0539L45 9.20691L41.2437 12.0539Z" fill="#B3986D"/>
<path d="M54.2437 12.0539L55.6672 7.42234L52 4.33155H56.5249L58 -0.0527344L59.4751 4.33155H64L60.3328 7.42234L61.7563 12.0539L58 9.20691L54.2437 12.0539Z" fill="#B3986D"/>
</g>
<defs>
<clipPath id="clip0_315_2213">
<rect width="64" height="12" fill="white" transform="translate(0 0.000488281)"/>
</clipPath>
</defs>
</svg>
