<svg width="309" height="312" viewBox="0 0 309 312" fill="none" xmlns="http://www.w3.org/2000/svg">
<path fill-rule="evenodd" clip-rule="evenodd" d="M255.801 311.314H61.564L41.8561 165.196L61.699 162.857L79.2005 292.617H238.529L259.37 160.247L279.156 162.969L255.801 311.314Z" fill="#B3986D"/>
<path fill-rule="evenodd" clip-rule="evenodd" d="M120.311 199.553L123.472 292.483L113.477 292.78L110.316 199.85L120.311 199.553ZM188.073 199.702H198.073V227.857C205.439 225.515 212.33 224.218 217.973 224.476C221.687 224.646 225.439 225.515 228.338 227.773C231.421 230.174 232.844 233.598 232.844 237.437C232.844 244.903 230.617 250.689 226.756 254.941C222.944 259.139 217.931 261.41 213.14 262.575C208.362 263.737 203.562 263.865 199.751 263.611C199.174 263.572 198.613 263.525 198.073 263.47V292.631H188.073V199.702ZM198.073 254.048C198.787 254.144 199.59 254.228 200.462 254.286C203.526 254.49 207.181 254.365 210.622 253.528C214.049 252.694 217.018 251.22 219.133 248.891C221.198 246.616 222.844 243.095 222.844 237.437C222.844 235.851 222.343 235.272 221.937 234.955C221.345 234.494 220.04 233.93 217.484 233.813C212.897 233.604 206.166 234.92 198.073 237.793V254.048Z" fill="#488DC6"/>
<path d="M198.557 201.569C198.557 212.245 178.591 220.899 153.962 220.899C129.333 220.899 109.367 212.245 109.367 201.569C109.367 190.893 129.333 182.239 153.962 182.239C178.591 182.239 198.557 190.893 198.557 201.569Z" fill="#5F4307"/>
<path fill-rule="evenodd" clip-rule="evenodd" d="M188.525 201.569C188.36 201.186 187.361 199.014 181.289 196.382C174.812 193.574 165.16 191.587 153.962 191.587C142.764 191.587 133.113 193.574 126.635 196.382C120.563 199.014 119.564 201.186 119.4 201.569C119.564 201.952 120.563 204.124 126.635 206.756C133.113 209.564 142.764 211.551 153.962 211.551C165.16 211.551 174.812 209.564 181.289 206.756C187.361 204.124 188.36 201.952 188.525 201.569ZM153.962 220.899C178.591 220.899 198.557 212.245 198.557 201.569C198.557 190.893 178.591 182.239 153.962 182.239C129.333 182.239 109.367 190.893 109.367 201.569C109.367 212.245 129.333 220.899 153.962 220.899Z" fill="#488DC6"/>
<path d="M114.349 212.716H196.112V292.631H114.349V212.716Z" fill="#488DC6"/>
<path d="M160.252 5.21365C164.266 0.269594 171.807 -0.69636 177.096 3.05613C182.384 6.80862 183.417 13.8586 179.403 18.8026L21.6478 213.113C17.6339 218.057 10.0927 219.023 4.80412 215.27C-0.484443 211.518 -1.51771 204.468 2.49625 199.524L160.252 5.21365Z" fill="#B3986D"/>
<path fill-rule="evenodd" clip-rule="evenodd" d="M13.6823 207.461L171.438 13.1507C172.113 12.3193 171.939 11.1338 171.05 10.5027C170.16 9.87172 168.892 10.0342 168.217 10.8656L10.4618 205.176C9.78675 206.007 9.96051 207.192 10.8498 207.824C11.7392 208.455 13.0073 208.292 13.6823 207.461ZM177.096 3.05613C171.807 -0.69636 164.266 0.269594 160.252 5.21365L2.49625 199.524C-1.51771 204.468 -0.484443 211.518 4.80412 215.27C10.0927 219.023 17.6339 218.057 21.6478 213.113L179.403 18.8026C183.417 13.8586 182.384 6.80862 177.096 3.05613Z" fill="#B3986D"/>
<path d="M306.419 202.653C309.868 207.957 308.065 214.87 302.391 218.094C296.718 221.318 289.323 219.632 285.874 214.328L160.005 20.7459C156.557 15.4421 158.36 8.5289 164.033 5.30492C169.707 2.08095 177.102 3.76702 180.55 9.07088L306.419 202.653Z" fill="#B3986D"/>
<path fill-rule="evenodd" clip-rule="evenodd" d="M168.55 15.8901L294.419 209.472C294.999 210.364 296.243 210.648 297.197 210.106C298.151 209.563 298.454 208.401 297.874 207.509L172.005 13.9268C171.425 13.0348 170.182 12.7513 169.228 13.2935C168.274 13.8356 167.97 14.9981 168.55 15.8901ZM302.391 218.094C308.065 214.87 309.868 207.957 306.419 202.653L180.55 9.07088C177.102 3.76702 169.707 2.08095 164.033 5.30492C158.36 8.5289 156.557 15.4421 160.005 20.7459L285.874 214.328C289.323 219.632 296.718 221.318 302.391 218.094Z" fill="#B3986D"/>
<path fill-rule="evenodd" clip-rule="evenodd" d="M155.277 123.839C152.818 123.267 150.594 123.316 149.061 123.872L147.177 119.744C150.037 118.707 153.44 118.806 156.54 119.527C159.672 120.256 162.795 121.687 165.187 123.654C167.576 125.619 169.412 128.278 169.458 131.417C169.504 134.597 167.708 137.74 164.05 140.623C156.086 146.901 153.585 152.496 153.729 155.957C153.799 157.65 154.479 158.775 155.357 159.433C156.233 160.09 157.59 160.498 159.488 160.263L160.176 164.677C157.132 165.054 154.281 164.451 152.137 162.842C149.995 161.235 148.845 158.838 148.732 156.122C148.51 150.765 152.232 143.99 160.738 137.285C163.668 134.975 164.48 132.981 164.458 131.475C164.435 129.927 163.526 128.352 161.797 126.93C160.071 125.511 157.704 124.404 155.277 123.839ZM120.981 124.385C118.522 123.813 116.298 123.862 114.764 124.418L112.881 120.29C115.74 119.253 119.144 119.352 122.244 120.073C125.376 120.802 128.499 122.233 130.891 124.201C133.28 126.165 135.115 128.824 135.161 131.963C135.208 135.143 133.412 138.286 129.754 141.17C121.789 147.447 119.289 153.043 119.433 156.504C119.503 158.196 120.183 159.321 121.061 159.979C121.937 160.637 123.294 161.044 125.192 160.809L125.88 165.223C122.836 165.6 119.984 164.997 117.841 163.389C115.699 161.781 114.549 159.385 114.436 156.668C114.214 151.311 117.935 144.536 126.442 137.831C129.372 135.521 130.184 133.527 130.162 132.021C130.139 130.474 129.23 128.898 127.501 127.476C125.775 126.057 123.408 124.95 120.981 124.385ZM187.94 124.385C185.481 123.813 183.257 123.862 181.724 124.418L179.84 120.29C182.7 119.253 186.103 119.352 189.203 120.073C192.335 120.802 195.458 122.233 197.85 124.201C200.239 126.165 202.075 128.824 202.121 131.963C202.167 135.143 200.371 138.286 196.713 141.17C188.749 147.447 186.248 153.043 186.392 156.504C186.462 158.196 187.142 159.321 188.02 159.979C188.896 160.637 190.254 161.044 192.151 160.809L192.839 165.223C189.795 165.6 186.944 164.997 184.8 163.389C182.658 161.781 181.508 159.385 181.395 156.668C181.173 151.311 184.895 144.536 193.401 137.831C196.331 135.521 197.143 133.527 197.121 132.021C197.098 130.474 196.189 128.898 194.46 127.476C192.735 126.057 190.367 124.95 187.94 124.385Z" fill="#FFEFD6"/>
</svg>
