<svg width="15" height="18" viewBox="0 0 15 18" fill="none" xmlns="http://www.w3.org/2000/svg">
<path d="M12.9942 14.3905C13.0089 14.5308 12.9957 14.6728 12.9554 14.8072C12.9152 14.9417 12.8487 15.0655 12.7606 15.1705C12.6722 15.2753 12.564 15.3589 12.4432 15.4158C12.3224 15.4727 12.1917 15.5015 12.0598 15.5005H2.94021C2.80825 15.5015 2.67758 15.4727 2.55679 15.4158C2.436 15.3589 2.32784 15.2753 2.23943 15.1705C2.15125 15.0655 2.08485 14.9417 2.04459 14.8072C2.00432 14.6728 1.99112 14.5308 2.00583 14.3905L2.82809 6.50049H12.1719L12.9942 14.3905Z" stroke="white" stroke-width="1.5" stroke-linecap="round" stroke-linejoin="round"/>
<path d="M5.16406 6.50048V5.00048C5.16406 4.33744 5.41017 3.70156 5.84825 3.23272C6.28632 2.76388 6.88048 2.50049 7.50002 2.50049C8.11955 2.50049 8.71371 2.76388 9.15179 3.23272C9.58987 3.70156 9.83597 4.33744 9.83597 5.00048V6.50048" stroke="white" stroke-width="1.5" stroke-linecap="round" stroke-linejoin="round"/>
</svg>
