<svg width="440" height="53" viewBox="0 0 440 53" fill="none" xmlns="http://www.w3.org/2000/svg">
<g clip-path="url(#clip0_609_5195)">
<rect width="439" height="53" transform="translate(0.5)" fill="white"/>
<path d="M11.8819 38.84H1.48187V11.96H11.8819V20.76H20.5219V11.96H30.9219V38.84H20.5219V29.4H11.8819V38.84ZM31.5606 30.808H41.1606V38.808H31.5606V30.808ZM57.9619 38.84H47.5619V11.96H64.5539C72.2659 11.96 75.4979 14.264 75.4979 18.776C75.4979 21.464 74.2179 23.416 71.6259 24.664C74.8899 25.848 76.8419 28.344 76.8419 31.288C76.8419 36.408 73.8979 38.84 64.5539 38.84H59.2419L58.2819 31H63.3699C65.5459 31 66.4419 30.488 66.4419 29.4C66.4419 28.312 65.5459 27.8 63.3699 27.8H57.9619V38.84ZM57.9619 22.2H63.2099C64.9379 22.2 65.7379 21.688 65.7379 20.76C65.7379 19.832 64.9379 19.32 63.2099 19.32H57.9619V22.2ZM77.1719 30.808H86.7719V38.808H77.1719V30.808ZM108.853 39.48C99.1571 39.48 92.8531 33.88 92.8531 25.4C92.8531 16.92 99.1571 11.32 108.853 11.32C117.269 11.32 122.741 15.48 124.181 22.04L113.557 24.536C113.205 22.616 111.573 20.92 108.853 20.92C105.749 20.92 104.117 23.128 104.085 25.4C104.053 27.672 105.749 29.88 108.853 29.88C111.605 29.88 113.237 28.152 113.589 26.2L124.181 28.696C122.773 35.288 117.269 39.48 108.853 39.48Z" fill="#333333"/>
<path d="M191.5 17.2693L159.5 35.7308" stroke="#333333" stroke-width="2" stroke-linecap="round" stroke-linejoin="round"/>
<path d="M159.5 17.2693L191.5 35.7308" stroke="#333333" stroke-width="2" stroke-linecap="round" stroke-linejoin="round"/>
<path d="M228.547 13.5469H233.258L241.309 33.2695H241.625L249.676 13.5469H254.387V39H250.696V20.6133H250.45L242.996 38.9648H239.938L232.45 20.5781H232.239V39H228.547V13.5469ZM273.686 13.5469V39H269.819V13.5469H273.686ZM306.31 21.8438C305.677 18.5742 302.97 16.7461 299.736 16.7461C295.341 16.7461 292.072 20.1211 292.072 26.2734C292.072 32.4609 295.376 35.8008 299.736 35.8008C302.935 35.8008 305.642 34.0078 306.31 30.7734L310.212 30.8086C309.404 35.8359 305.29 39.3516 299.701 39.3516C293.056 39.3516 288.24 34.3945 288.24 26.2734C288.24 18.1172 293.091 13.1953 299.701 13.1953C305.08 13.1953 309.333 16.3594 310.212 21.8438H306.31ZM324.625 39V13.5469H328.492V24.5859H341.148V13.5469H345.016V39H341.148V27.8906H328.492V39H324.625ZM360.448 39V13.5469H376.409V16.8867H364.315V24.5859H375.565V27.8906H364.315V35.6602H376.549V39H360.448ZM391.384 39V13.5469H395.251V35.6602H406.747V39H391.384ZM420.949 39V13.5469H436.91V16.8867H424.816V24.5859H436.066V27.8906H424.816V35.6602H437.05V39H420.949Z" fill="#333333"/>
</g>
<defs>
<clipPath id="clip0_609_5195">
<rect width="439" height="53" fill="white" transform="translate(0.5)"/>
</clipPath>
</defs>
</svg>
