<svg width="432" height="53" viewBox="0 0 432 53" fill="none" xmlns="http://www.w3.org/2000/svg">
<g clip-path="url(#clip0_609_5194)">
<rect width="432" height="53" fill="white"/>
<path d="M11.3819 38.84H0.981873V11.96H11.3819V20.76H20.0219V11.96H30.4219V38.84H20.0219V29.4H11.3819V38.84ZM31.0606 30.808H40.6606V38.808H31.0606V30.808ZM57.4619 38.84H47.0619V11.96H64.0539C71.7659 11.96 74.9979 14.264 74.9979 18.776C74.9979 21.464 73.7179 23.416 71.1259 24.664C74.3899 25.848 76.3419 28.344 76.3419 31.288C76.3419 36.408 73.3979 38.84 64.0539 38.84H58.7419L57.7819 31H62.8699C65.0459 31 65.9419 30.488 65.9419 29.4C65.9419 28.312 65.0459 27.8 62.8699 27.8H57.4619V38.84ZM57.4619 22.2H62.7099C64.4379 22.2 65.2379 21.688 65.2379 20.76C65.2379 19.832 64.4379 19.32 62.7099 19.32H57.4619V22.2ZM76.6719 30.808H86.2719V38.808H76.6719V30.808ZM108.353 39.48C98.6571 39.48 92.3531 33.88 92.3531 25.4C92.3531 16.92 98.6571 11.32 108.353 11.32C116.769 11.32 122.241 15.48 123.681 22.04L113.057 24.536C112.705 22.616 111.073 20.92 108.353 20.92C105.249 20.92 103.617 23.128 103.585 25.4C103.553 27.672 105.249 29.88 108.353 29.88C111.105 29.88 112.737 28.152 113.089 26.2L123.681 28.696C122.273 35.288 116.769 39.48 108.353 39.48Z" fill="#333333"/>
<path d="M191 17.2693L159 35.7308" stroke="#333333" stroke-width="2" stroke-linecap="round" stroke-linejoin="round"/>
<path d="M159 17.2693L191 35.7308" stroke="#333333" stroke-width="2" stroke-linecap="round" stroke-linejoin="round"/>
<path d="M227.94 39V13.5469H237.01C242.916 13.5469 245.834 17.0977 245.834 21.8086C245.834 26.4844 242.916 30.0703 237.01 30.0703H231.807V39H227.94ZM231.807 26.7656H236.623C240.385 26.7656 241.932 24.6562 241.932 21.8086C241.932 18.9258 240.385 16.8516 236.623 16.8516H231.807V26.7656ZM264.009 13.5469V39H260.141V13.5469H264.009ZM279.406 39V13.5469H295.367V16.8867H283.273V24.5859H294.523V27.8906H283.273V35.6602H295.507V39H279.406ZM310.342 39V13.5469H319.412C325.318 13.5469 328.236 16.8516 328.236 21.5273C328.236 24.9551 326.689 27.5566 323.596 28.6992L329.221 39H324.826L319.658 29.4023H319.412H314.209V39H310.342ZM314.209 26.0625H319.025C322.787 26.0625 324.334 24.4102 324.334 21.5273C324.334 18.6445 322.787 16.8516 319.025 16.8516H314.209V26.0625ZM342.754 39V13.5469H351.825C357.731 13.5469 360.649 16.8516 360.649 21.5273C360.649 24.9551 359.102 27.5566 356.008 28.6992L361.633 39H357.239L352.071 29.4023H351.825H346.622V39H342.754ZM346.622 26.0625H351.438C355.2 26.0625 356.747 24.4102 356.747 21.5273C356.747 18.6445 355.2 16.8516 351.438 16.8516H346.622V26.0625ZM397.28 26.2734C397.28 34.3945 392.394 39.3516 385.819 39.3516C379.175 39.3516 374.323 34.3945 374.323 26.2734C374.323 18.1172 379.175 13.1953 385.819 13.1953C392.394 13.1953 397.28 18.1172 397.28 26.2734ZM393.448 26.2734C393.448 20.0859 390.179 16.7461 385.819 16.7461C381.425 16.7461 378.155 20.0859 378.155 26.2734C378.155 32.4609 381.425 35.8008 385.819 35.8008C390.179 35.8008 393.448 32.4609 393.448 26.2734ZM410.603 16.8867V13.5469H430.326V16.8867H422.416V39H418.549V16.8867H410.603Z" fill="#333333"/>
</g>
<defs>
<clipPath id="clip0_609_5194">
<rect width="432" height="53" fill="white"/>
</clipPath>
</defs>
</svg>
