<svg width="429" height="53" viewBox="0 0 429 53" fill="none" xmlns="http://www.w3.org/2000/svg">
<g clip-path="url(#clip0_424_7260)">
<rect width="429" height="53" fill="white"/>
<path d="M11.3819 38.84H0.981873V11.96H11.3819V20.76H20.0219V11.96H30.4219V38.84H20.0219V29.4H11.3819V38.84ZM31.0606 30.808H40.6606V38.808H31.0606V30.808ZM57.4619 38.84H47.0619V11.96H64.0539C71.7659 11.96 74.9979 14.264 74.9979 18.776C74.9979 21.464 73.7179 23.416 71.1259 24.664C74.3899 25.848 76.3419 28.344 76.3419 31.288C76.3419 36.408 73.3979 38.84 64.0539 38.84H58.7419L57.7819 31H62.8699C65.0459 31 65.9419 30.488 65.9419 29.4C65.9419 28.312 65.0459 27.8 62.8699 27.8H57.4619V38.84ZM57.4619 22.2H62.7099C64.4379 22.2 65.2379 21.688 65.2379 20.76C65.2379 19.832 64.4379 19.32 62.7099 19.32H57.4619V22.2ZM76.6719 30.808H86.2719V38.808H76.6719V30.808ZM108.353 39.48C98.6571 39.48 92.3531 33.88 92.3531 25.4C92.3531 16.92 98.6571 11.32 108.353 11.32C116.769 11.32 122.241 15.48 123.681 22.04L113.057 24.536C112.705 22.616 111.073 20.92 108.353 20.92C105.249 20.92 103.617 23.128 103.585 25.4C103.553 27.672 105.249 29.88 108.353 29.88C111.105 29.88 112.737 28.152 113.089 26.2L123.681 28.696C122.273 35.288 116.769 39.48 108.353 39.48Z" fill="#333333"/>
<path d="M191 17.2693L159 35.7308" stroke="#333333" stroke-width="2" stroke-linecap="round" stroke-linejoin="round"/>
<path d="M159 17.2693L191 35.7308" stroke="#333333" stroke-width="2" stroke-linecap="round" stroke-linejoin="round"/>
<path d="M227.864 39V13.5469H243.649V16.8867H231.731V24.5859H242.524V27.8906H231.731V39H227.864ZM262.069 13.5469V39H258.202V13.5469H262.069ZM277.466 39V13.5469H281.333V35.6602H292.83V39H277.466ZM307.031 39V13.5469H310.898V35.6602H322.395V39H307.031ZM358.71 26.2734C358.71 34.3945 353.823 39.3516 347.249 39.3516C340.604 39.3516 335.753 34.3945 335.753 26.2734C335.753 18.1172 340.604 13.1953 347.249 13.1953C353.823 13.1953 358.71 18.1172 358.71 26.2734ZM354.878 26.2734C354.878 20.0859 351.608 16.7461 347.249 16.7461C342.854 16.7461 339.585 20.0859 339.585 26.2734C339.585 32.4609 342.854 35.8008 347.249 35.8008C351.608 35.8008 354.878 32.4609 354.878 26.2734ZM389.646 13.5469H393.513V30.2812C393.513 35.625 389.505 39.4219 383.423 39.4219C377.271 39.4219 373.298 35.625 373.298 30.2812V13.5469H377.165V29.9648C377.165 33.4102 379.556 35.9062 383.423 35.9062C387.255 35.9062 389.646 33.4102 389.646 29.9648V13.5469ZM407.679 16.8867V13.5469H427.402V16.8867H419.492V39H415.625V16.8867H407.679Z" fill="#333333"/>
</g>
<defs>
<clipPath id="clip0_424_7260">
<rect width="429" height="53" fill="white"/>
</clipPath>
</defs>
</svg>
