<svg width="708" height="53" viewBox="0 0 708 53" fill="none" xmlns="http://www.w3.org/2000/svg">
<g clip-path="url(#clip0_424_7260)">
<rect width="708" height="53" fill="white"/>
<path d="M23.2216 41.6406H18.538V27.1172H7.15132V41.6406H2.46773V9.58594H7.15132V22.8633H18.538V9.58594H23.2216V41.6406ZM47.4354 25.5703C47.4354 23.8516 47.2205 22.1758 46.7909 20.543C46.3898 18.9102 45.7882 17.5352 44.9862 16.418C44.2414 15.3008 43.339 14.4701 42.2791 13.9258C41.2192 13.3815 40.1307 13.1094 39.0135 13.1094C37.8963 13.1094 36.7935 13.3815 35.7049 13.9258C34.645 14.4701 33.757 15.3008 33.0409 16.418C32.2388 17.5352 31.6229 18.9102 31.1932 20.543C30.7635 22.1758 30.5487 23.8516 30.5487 25.5703C30.5487 27.3177 30.7635 28.9935 31.1932 30.5977C31.6229 32.2018 32.2388 33.5625 33.0409 34.6797C33.757 35.7969 34.645 36.6419 35.7049 37.2148C36.7935 37.7591 37.8963 38.0312 39.0135 38.0312C40.1307 38.0312 41.2192 37.7591 42.2791 37.2148C43.339 36.6419 44.2414 35.7969 44.9862 34.6797C45.7882 33.5625 46.3898 32.2018 46.7909 30.5977C47.2205 28.9935 47.4354 27.3177 47.4354 25.5703ZM52.1619 25.5703C52.1619 27.8333 51.8468 30.0104 51.2166 32.1016C50.6151 34.1927 49.7271 35.9831 48.5526 37.4727C47.3781 38.9909 45.9458 40.151 44.2557 40.9531C42.5656 41.7266 40.8182 42.1133 39.0135 42.1133C37.1802 42.1133 35.4185 41.7266 33.7284 40.9531C32.0669 40.151 30.6489 38.9909 29.4744 37.4727C28.3 35.9831 27.3976 34.1927 26.7674 32.1016C26.1659 30.0104 25.8651 27.8333 25.8651 25.5703C25.8651 23.3359 26.1659 21.1732 26.7674 19.082C27.3976 16.9909 28.3 15.1862 29.4744 13.668C30.6489 12.1784 32.0669 11.0326 33.7284 10.2305C35.4185 9.39974 37.1802 8.98438 39.0135 8.98438C40.8182 8.98438 42.5656 9.39974 44.2557 10.2305C45.9458 11.0326 47.3781 12.1784 48.5526 13.668C49.7271 15.1862 50.6151 16.9909 51.2166 19.082C51.8468 21.1732 52.1619 23.3359 52.1619 25.5703ZM82.3054 41.6406H77.9226V18.3945L70.446 41.6406H66.7507L59.3171 18.3945V41.6406H54.8913V9.58594H60.6062L68.6413 34.4219L76.5476 9.58594H82.3054V41.6406ZM103.468 41.6406H86.1949V9.58594H103.125V13.8398H90.8785V22.7773H102.566V27.0312H90.8785V37.3867H103.468V41.6406ZM138.404 32.2734C138.404 34.7656 137.773 36.7422 136.513 38.2031C135.281 39.6641 133.734 40.681 131.872 41.2539C131.271 41.3971 130.569 41.4974 129.767 41.5547C128.965 41.612 128.335 41.6406 127.876 41.6406H118.767V9.58594H127.361C130.397 9.58594 132.803 10.3307 134.579 11.8203C136.355 13.3099 137.244 15.4583 137.244 18.2656C137.244 19.9271 136.857 21.2878 136.083 22.3477C135.31 23.3789 134.35 24.1523 133.204 24.668C134.408 25.069 135.568 25.8568 136.685 27.0312C137.831 28.1771 138.404 29.9245 138.404 32.2734ZM123.408 37.4727H127.361C127.704 37.4727 128.177 37.4583 128.779 37.4297C129.409 37.3724 129.882 37.2865 130.197 37.1719C131.428 36.7708 132.316 36.1406 132.861 35.2812C133.434 34.4219 133.72 33.4193 133.72 32.2734C133.72 31.0703 133.434 30.0534 132.861 29.2227C132.316 28.3919 131.428 27.776 130.197 27.375C129.882 27.2604 129.438 27.1602 128.865 27.0742C128.292 26.9883 127.79 26.9453 127.361 26.9453H123.408V37.4727ZM132.603 18.2656C132.603 16.8333 132.23 15.7734 131.486 15.0859C130.741 14.3984 129.71 13.9831 128.392 13.8398C128.077 13.8112 127.733 13.7969 127.361 13.7969C127.017 13.7682 126.716 13.7539 126.458 13.7539H123.408V22.7773H126.587C126.816 22.7773 127.103 22.7773 127.447 22.7773C127.819 22.7773 128.134 22.763 128.392 22.7344C129.652 22.5625 130.669 22.1042 131.443 21.3594C132.216 20.5859 132.603 19.5547 132.603 18.2656ZM163.434 41.6406H158.535L155.571 32.0156H146.16L143.281 41.6406H138.383L148.61 9.58594H153.207L163.434 41.6406ZM154.324 27.7617L150.93 16.418L147.492 27.7617H154.324ZM184.296 18.9961C184.296 20.4857 183.967 21.8464 183.308 23.0781C182.649 24.2812 181.789 25.2409 180.73 25.957C180.099 26.3294 179.584 26.6016 179.183 26.7734C180.672 27.6328 181.818 29.1654 182.62 31.3711C183.651 34.1784 184.482 37.6016 185.112 41.6406H180.257C179.455 36.3411 178.481 32.8607 177.335 31.1992C176.103 29.3945 174.628 28.4922 172.909 28.4922H170.589V24.1094H173.081C174.055 24.1094 174.914 24.0234 175.659 23.8516C176.404 23.6797 177.049 23.3789 177.593 22.9492C178.166 22.5768 178.638 22.0469 179.011 21.3594C179.412 20.6432 179.612 19.8555 179.612 18.9961C179.612 18.0221 179.412 17.2057 179.011 16.5469C178.638 15.888 178.166 15.3724 177.593 15C176.991 14.5703 176.304 14.2695 175.53 14.0977C174.786 13.8971 174.069 13.7969 173.382 13.7969H169.644V41.6406H164.96V9.58594H173.296C174.671 9.58594 175.989 9.75781 177.249 10.1016C178.51 10.4453 179.655 10.9466 180.687 11.6055C181.775 12.3503 182.649 13.3242 183.308 14.5273C183.967 15.7018 184.296 17.1914 184.296 18.9961ZM191.924 41.6406H187.24V9.58594H191.924V41.6406ZM213.345 32.7031C213.345 35.9115 212.342 38.2891 210.337 39.8359C208.36 41.3542 205.696 42.1133 202.345 42.1133C201.084 42.1133 199.809 41.9701 198.52 41.6836C197.231 41.3971 196.014 41.0677 194.868 40.6953V35.7969C196.186 36.3698 197.375 36.8281 198.434 37.1719C199.007 37.3438 199.681 37.5156 200.454 37.6875C201.227 37.8307 201.972 37.9023 202.688 37.9023C203.462 37.9023 204.178 37.8307 204.837 37.6875C205.524 37.5443 206.14 37.2721 206.684 36.8711C207.2 36.5273 207.644 36.069 208.016 35.4961C208.389 34.8945 208.575 34.1497 208.575 33.2617C208.575 32.4023 208.403 31.6719 208.059 31.0703C207.716 30.4688 207.3 29.9674 206.813 29.5664C205.753 28.6497 204.622 27.8763 203.419 27.2461C202.588 26.7878 201.657 26.2721 200.626 25.6992C199.623 25.0977 198.664 24.4245 197.747 23.6797C196.83 22.9349 196.071 22.0612 195.47 21.0586C194.897 20.0273 194.61 18.8672 194.61 17.5781C194.61 14.6276 195.498 12.4648 197.274 11.0898C199.05 9.6862 201.342 8.98438 204.149 8.98438C204.865 8.98438 205.582 9.05599 206.298 9.19922C207.014 9.3138 207.658 9.44271 208.231 9.58594C209.32 9.84375 210.423 10.1589 211.54 10.5312V15.1719C210.451 14.5703 209.22 14.0833 207.845 13.7109C206.47 13.3099 205.152 13.1094 203.891 13.1094C202.574 13.1094 201.471 13.4818 200.583 14.2266C199.695 14.9427 199.251 15.9596 199.251 17.2773C199.251 17.8216 199.38 18.3086 199.638 18.7383C199.924 19.1393 200.253 19.526 200.626 19.8984C201.027 20.3281 201.485 20.7292 202.001 21.1016C202.516 21.4453 203.089 21.7747 203.72 22.0898C205.725 23.1784 207.243 24.0664 208.274 24.7539C209.306 25.4128 210.151 26.0573 210.809 26.6875C211.583 27.4036 212.184 28.2344 212.614 29.1797C213.044 30.0964 213.287 31.2708 213.345 32.7031ZM236.011 13.8398H227.246V41.6406H222.562V13.8398H213.754V9.58594H236.011V13.8398ZM257.174 41.6406H252.276L249.311 32.0156H239.901L237.022 41.6406H232.124L242.35 9.58594H246.948L257.174 41.6406ZM248.065 27.7617L244.671 16.418L241.233 27.7617H248.065ZM292.926 19.2539H288.071C288.071 17.8789 287.899 16.862 287.555 16.2031C287.24 15.5156 286.853 14.9427 286.395 14.4844C285.879 14.0833 285.292 13.7826 284.633 13.582C284.003 13.3529 283.387 13.224 282.786 13.1953C281.697 13.1953 280.651 13.4245 279.649 13.8828C278.675 14.3411 277.787 15.0859 276.985 16.1172C276.183 17.1771 275.552 18.5378 275.094 20.1992C274.636 21.832 274.407 23.4648 274.407 25.0977C274.407 26.1576 274.536 27.4323 274.793 28.9219C275.051 30.4115 275.524 31.8724 276.211 33.3047C276.927 34.6224 277.887 35.7396 279.09 36.6562C280.293 37.5443 281.84 37.9883 283.731 37.9883C285.106 37.9883 286.409 37.7591 287.641 37.3008C288.873 36.8138 290.305 36.069 291.938 35.0664V40.0078C291.451 40.2656 290.978 40.5091 290.52 40.7383C290.09 40.9674 289.503 41.1966 288.758 41.4258C287.039 41.9128 285.077 42.1562 282.871 42.1562C280.58 42.1562 278.589 41.6549 276.899 40.6523C275.237 39.6497 273.834 38.3177 272.688 36.6562C271.571 34.9948 270.783 33.1758 270.325 31.1992C269.895 29.2227 269.68 27.1888 269.68 25.0977C269.68 23.0065 269.924 21.0013 270.411 19.082C270.898 17.1628 271.7 15.4727 272.817 14.0117C273.905 12.5794 275.28 11.3906 276.942 10.4453C278.603 9.47135 280.551 8.98438 282.786 8.98438C284.132 8.98438 285.421 9.22786 286.653 9.71484C287.884 10.1732 288.959 10.8177 289.875 11.6484C290.792 12.4792 291.523 13.4818 292.067 14.6562C292.64 15.8021 292.926 17.3346 292.926 19.2539ZM312.671 41.6406H295.355V9.58594H300.038V37.3867H312.671V41.6406ZM324.467 37.8594C325.555 37.9167 326.486 37.7018 327.26 37.2148C328.062 36.7279 328.692 36.1263 329.151 35.4102C329.58 34.5221 329.895 33.5768 330.096 32.5742C330.325 31.543 330.44 30.4401 330.44 29.2656V9.58594H335.123V29.5234C335.123 30.8698 334.994 32.2734 334.736 33.7344C334.479 35.1953 333.963 36.5417 333.19 37.7734C332.387 39.0339 331.27 40.0794 329.838 40.9102C328.434 41.7122 326.644 42.1133 324.467 42.1133C322.29 42.1133 320.485 41.7122 319.053 40.9102C317.649 40.0794 316.546 39.0339 315.744 37.7734C314.971 36.5417 314.455 35.1953 314.197 33.7344C313.968 32.2448 313.854 30.8411 313.854 29.5234V9.58594H318.537V29.2656C318.537 30.4401 318.637 31.543 318.838 32.5742C319.039 33.5768 319.368 34.5221 319.826 35.4102C320.256 36.1263 320.858 36.7135 321.631 37.1719C322.404 37.6302 323.35 37.8594 324.467 37.8594ZM358.607 32.2734C358.607 34.7656 357.976 36.7422 356.716 38.2031C355.484 39.6641 353.937 40.681 352.075 41.2539C351.474 41.3971 350.772 41.4974 349.97 41.5547C349.168 41.612 348.537 41.6406 348.079 41.6406H338.97V9.58594H347.564C350.6 9.58594 353.006 10.3307 354.782 11.8203C356.558 13.3099 357.446 15.4583 357.446 18.2656C357.446 19.9271 357.06 21.2878 356.286 22.3477C355.513 23.3789 354.553 24.1523 353.407 24.668C354.61 25.069 355.771 25.8568 356.888 27.0312C358.034 28.1771 358.607 29.9245 358.607 32.2734ZM343.61 37.4727H347.564C347.907 37.4727 348.38 37.4583 348.982 37.4297C349.612 37.3724 350.084 37.2865 350.399 37.1719C351.631 36.7708 352.519 36.1406 353.064 35.2812C353.636 34.4219 353.923 33.4193 353.923 32.2734C353.923 31.0703 353.636 30.0534 353.064 29.2227C352.519 28.3919 351.631 27.776 350.399 27.375C350.084 27.2604 349.64 27.1602 349.067 27.0742C348.495 26.9883 347.993 26.9453 347.564 26.9453H343.61V37.4727ZM352.806 18.2656C352.806 16.8333 352.433 15.7734 351.689 15.0859C350.944 14.3984 349.912 13.9831 348.595 13.8398C348.28 13.8112 347.936 13.7969 347.564 13.7969C347.22 13.7682 346.919 13.7539 346.661 13.7539H343.61V22.7773H346.79C347.019 22.7773 347.306 22.7773 347.649 22.7773C348.022 22.7773 348.337 22.763 348.595 22.7344C349.855 22.5625 350.872 22.1042 351.646 21.3594C352.419 20.5859 352.806 19.5547 352.806 18.2656Z" fill="#B3986D"/>
<path d="M446 11.5L394 41.5" stroke="#B3986D" stroke-width="2" stroke-linecap="round" stroke-linejoin="round"/>
<path d="M394 11.5L446 41.5" stroke="#B3986D" stroke-width="2" stroke-linecap="round" stroke-linejoin="round"/>
<path d="M483.326 42V10.8906H494.412C501.631 10.8906 505.197 14.9297 505.197 20.6445C505.197 24.834 503.307 28.0137 499.525 29.4102L506.4 42H501.029L494.713 30.2695H494.412H488.053V42H483.326ZM488.053 26.1875H493.94C498.537 26.1875 500.428 24.168 500.428 20.6445C500.428 17.1211 498.537 14.9297 493.94 14.9297H488.053V26.1875ZM538.347 26.4453C538.347 36.3711 532.374 42.4297 524.339 42.4297C516.218 42.4297 510.288 36.3711 510.288 26.4453C510.288 16.4766 516.218 10.4609 524.339 10.4609C532.374 10.4609 538.347 16.4766 538.347 26.4453ZM533.663 26.4453C533.663 18.8828 529.667 14.8008 524.339 14.8008C518.968 14.8008 514.972 18.8828 514.972 26.4453C514.972 34.0078 518.968 38.0898 524.339 38.0898C529.667 38.0898 533.663 34.0078 533.663 26.4453ZM545.629 42H540.602L551.774 10.8906H557.231L568.446 42H563.418L560.582 33.793H548.465L545.629 42ZM549.84 29.8398H559.207L554.61 16.5625H554.395L549.84 29.8398ZM589.951 19.0977C589.65 16.2188 587.115 14.543 583.548 14.543C579.724 14.543 577.318 16.4766 577.318 19.1406C577.318 22.1055 580.54 23.2227 582.99 23.8242L585.997 24.6406C589.994 25.5859 594.935 27.7773 594.978 33.4062C594.935 38.6484 590.767 42.5156 583.419 42.5156C576.458 42.5156 572.076 39.0352 571.775 33.3633H576.501C576.802 36.7578 579.767 38.3906 583.419 38.3906C587.372 38.3906 590.251 36.3711 590.294 33.3203C590.251 30.6133 587.716 29.4961 584.408 28.6367L580.712 27.6484C575.728 26.2734 572.591 23.7383 572.591 19.3984C572.591 14.0273 577.404 10.4609 583.677 10.4609C589.994 10.4609 594.419 14.0703 594.548 19.0977H589.951ZM599.381 14.9727V10.8906H623.487V14.9727H613.819V42H609.092V14.9727H599.381ZM629.179 42V10.8906H648.687V14.9727H633.906V24.3828H647.656V28.4219H633.906V37.918H648.859V42H629.179ZM655.368 42V10.8906H666.454C673.673 10.8906 677.239 14.9297 677.239 20.6445C677.239 24.834 675.348 28.0137 671.567 29.4102L678.442 42H673.071L666.755 30.2695H666.454H660.095V42H655.368ZM660.095 26.1875H665.981C670.579 26.1875 672.47 24.168 672.47 20.6445C672.47 17.1211 670.579 14.9297 665.981 14.9297H660.095V26.1875ZM679.838 10.8906H685.209L693.287 24.9844H693.631L701.752 10.8906H707.123L695.822 29.7969V42H691.096V29.7969L679.838 10.8906Z" fill="#333333"/>
</g>
<defs>
<clipPath id="clip0_424_7260">
<rect width="708" height="53" fill="white"/>
</clipPath>
</defs>
</svg>
