<svg width="27" height="27" viewBox="0 0 27 27" fill="none" xmlns="http://www.w3.org/2000/svg">
<mask id="mask0_88_78" style="mask-type:alpha" maskUnits="userSpaceOnUse" x="0" y="0" width="27" height="27">
<rect width="27" height="27" fill="#D9D9D9"/>
</mask>
<g mask="url(#mask0_88_78)">
<path d="M6.57462 22.0025C5.69637 22.0025 4.95077 21.6953 4.33784 21.0811C3.7249 20.4668 3.41843 19.7211 3.41843 18.8438H1.51465V7.09622C1.51465 6.52791 1.71152 6.04688 2.10527 5.65313C2.49902 5.25938 2.97996 5.0625 3.54809 5.0625H18.8655V9.34622H21.851L25.4856 14.2141V17.1563H22.8689C23.9064 18.8438 23.1447 20.4668 22.5299 21.0811C21.9153 21.6953 21.169 22.0025 20.2909 22.0025C19.4128 22.0025 18.6672 21.6953 18.0541 21.0811C17.4412 20.4668 17.1347 19.7211 17.1347 18.8438H9.73559C9.73559 19.7235 9.42827 20.4698 8.81365 21.0828C8.19902 21.6959 7.45268 22.0025 6.57462 22.0025ZM6.57715 20.315C6.98965 20.315 7.33793 20.1728 7.62199 19.8886C7.90605 19.6045 8.04809 19.2562 8.04809 18.8438C8.04809 18.4312 7.90605 18.0829 7.62199 17.7986C7.33793 17.5146 6.98965 17.3725 6.57715 17.3725C6.16465 17.3725 5.81627 17.5146 5.53202 17.7986C5.24796 18.0829 5.10593 18.4312 5.10593 18.8438C5.10593 19.2562 5.24796 19.6045 5.53202 19.8886C5.81627 20.1728 6.16465 20.315 6.57715 20.315ZM3.20215 17.1562H4.01552C4.25496 16.7394 4.60071 16.39 5.05277 16.108C5.50502 15.826 6.01315 15.685 6.57715 15.685C7.12652 15.685 7.6309 15.8243 8.09027 16.1027C8.54965 16.3811 8.89906 16.7323 9.13849 17.1562H17.178V6.75H3.54809C3.46165 6.75 3.38234 6.78609 3.31015 6.85828C3.23815 6.93028 3.20215 7.00959 3.20215 7.09622V17.1562ZM20.2934 20.315C20.7059 20.315 21.0542 20.1728 21.3383 19.8886C21.6225 19.6045 21.7646 19.2562 21.7646 18.8438C21.7646 18.4312 21.6225 18.0829 21.3383 17.7986C21.0542 17.5146 20.7059 17.3725 20.2934 17.3725C19.8809 17.3725 19.5326 17.5146 19.2483 17.7986C18.9642 18.0829 18.8222 18.4312 18.8222 18.8438C18.8222 19.2562 18.9642 19.6045 19.2483 19.8886C19.5326 20.1728 19.8809 20.315 20.2934 20.315ZM18.8655 14.9062H23.9064L20.9856 11.0337H18.8655V14.9062Z" fill="#1E1E1E"/>
</g>
</svg>
