<svg width="27" height="28" viewBox="0 0 27 28" fill="none" xmlns="http://www.w3.org/2000/svg">
<rect width="27" height="28" fill="#F5F5F5"/>
<g clip-path="url(#clip0_80_2)">
<rect width="1920" height="7186.74" transform="translate(-1596 -61)" fill="white"/>
<path d="M16.1536 6.67627H21.4614C22.3999 6.67627 23.3 7.08826 23.9636 7.8216C24.6272 8.55494 25 9.54957 25 10.5867V18.4075H22.3461" stroke="#333333" stroke-width="1.5" stroke-linecap="round" stroke-linejoin="round"/>
<path d="M3.77083 18.4086H2.00154V5.36357C2.00154 4.86932 2.18794 4.39531 2.51975 4.04583C2.85156 3.69634 3.30158 3.5 3.77083 3.5H14.3866C14.8558 3.5 15.3058 3.69634 15.6376 4.04583C15.9694 4.39531 16.1558 4.86932 16.1558 5.36357L16.1562 17.7253" stroke="#333333" stroke-width="1.5" stroke-linecap="round" stroke-linejoin="round"/>
<path d="M15.2695 18.4087H10.8463" stroke="#333333" stroke-width="1.5" stroke-linecap="round" stroke-linejoin="round"/>
<path d="M18.8052 24.5C16.8509 24.5 15.2666 22.7493 15.2666 20.5896C15.2666 18.4299 16.8509 16.6792 18.8052 16.6792C20.7595 16.6792 22.3438 18.4299 22.3438 20.5896C22.3438 22.7493 20.7595 24.5 18.8052 24.5Z" stroke="#333333" stroke-width="1.5" stroke-linecap="round" stroke-linejoin="round"/>
<path d="M7.30908 24.5C5.35478 24.5 3.7705 22.7493 3.7705 20.5896C3.7705 18.4299 5.35478 16.6792 7.30908 16.6792C9.26338 16.6792 10.8477 18.4299 10.8477 20.5896C10.8477 22.7493 9.26338 24.5 7.30908 24.5Z" stroke="#333333" stroke-width="1.5" stroke-linecap="round" stroke-linejoin="round"/>
</g>
<defs>
<clipPath id="clip0_80_2">
<rect width="1920" height="7186.74" fill="white" transform="translate(-1596 -61)"/>
</clipPath>
</defs>
</svg>
