<svg width="412" height="144" viewBox="0 0 412 144" fill="none" xmlns="http://www.w3.org/2000/svg">
<g filter="url(#filter0_d_474_3971)">
<path d="M128.016 38.7402V10.459H146.648V15.3027H133.875V22.1777H145.438V27.0215H133.875V38.7402H128.016ZM156.375 10.459V38.7402H150.516V10.459H156.375ZM161.141 38.7402V10.459H167V33.8965H179.188V38.7402H161.141ZM182.977 38.7402V10.459H188.836V33.8965H201.023V38.7402H182.977ZM229.578 24.5996C229.578 33.8184 223.836 39.1309 216.375 39.1309C208.836 39.1309 203.133 33.7793 203.133 24.5996C203.133 15.3809 208.836 10.0684 216.375 10.0684C223.836 10.0684 229.578 15.3809 229.578 24.5996ZM223.602 24.5996C223.602 18.5449 220.75 15.2637 216.375 15.2637C212 15.2637 209.109 18.5449 209.109 24.5996C209.109 30.6543 212 33.9355 216.375 33.9355C220.75 33.9355 223.602 30.6543 223.602 24.5996ZM251.297 10.459H257.195V28.8184C257.195 35.0293 252.508 39.1309 245.477 39.1309C238.445 39.1309 233.797 35.0293 233.797 28.8184V10.459H239.656V28.3496C239.656 31.5918 241.961 33.9746 245.477 33.9746C249.031 33.9746 251.297 31.5918 251.297 28.3496V10.459ZM260.867 15.3027V10.459H284.031V15.3027H275.359V38.7402H269.539V15.3027H260.867Z" fill="white"/>
<path d="M225.457 60.7402L185.457 83.8172" stroke="white" stroke-width="2" stroke-linecap="round" stroke-linejoin="round"/>
<path d="M185.457 60.7402L225.457 83.8172" stroke="white" stroke-width="2" stroke-linecap="round" stroke-linejoin="round"/>
<path d="M4.42188 133.817V105.536H10.2812V117.255H22.5469V105.536H28.4453V133.817H22.5469V122.099H10.2812V133.817H4.42188ZM59.1094 119.677C59.1094 128.896 53.3672 134.208 45.9062 134.208C38.3672 134.208 32.6641 128.856 32.6641 119.677C32.6641 110.458 38.3672 105.146 45.9062 105.146C53.3672 105.146 59.1094 110.458 59.1094 119.677ZM53.1328 119.677C53.1328 113.622 50.2812 110.341 45.9062 110.341C41.5312 110.341 38.6406 113.622 38.6406 119.677C38.6406 125.731 41.5312 129.013 45.9062 129.013C50.2812 129.013 53.1328 125.731 53.1328 119.677ZM63.3281 105.536H70.5938L78.4453 124.716H78.7578L86.6094 105.536H93.875V133.817H88.1719V115.302H87.9375L80.5547 133.7H76.6484L69.2656 115.224H69.0312V133.817H63.3281V105.536ZM98.6406 133.817V105.536H117.625V110.38H104.5V117.255H116.648V122.099H104.5V128.974H117.664V133.817H98.6406ZM131.414 133.817V105.536H142.664C148.914 105.536 152.039 108.544 152.039 112.802C152.039 116.122 149.891 118.192 146.961 118.856V119.13C150.164 119.286 153.172 121.825 153.172 126.005C153.172 130.497 149.812 133.817 143.406 133.817H131.414ZM142.234 128.974C145.633 128.974 147.078 127.567 147.078 125.458C147.078 123.075 145.281 121.396 142.391 121.396H137.273V128.974H142.234ZM141.805 117.372C144.266 117.372 146.102 116.005 146.102 113.739C146.102 111.708 144.617 110.302 141.922 110.302H137.273V117.372H141.805ZM161.609 133.817H155.281L165.086 105.536H172.625L182.391 133.817H176.102L173.992 127.294H163.758L161.609 133.817ZM165.242 122.724H172.508L168.953 111.903H168.758L165.242 122.724ZM185.594 133.817V105.536H196.688C203.133 105.536 206.805 109.169 206.805 114.755C206.805 118.622 205.027 121.435 201.805 122.802L207.82 133.817H201.336L195.945 123.778H191.453V133.817H185.594ZM191.453 119.013H195.594C199.07 119.013 200.75 117.567 200.75 114.755C200.75 111.903 199.07 110.341 195.594 110.341H191.453V119.013ZM216.727 105.536V133.817H210.867V105.536H216.727ZM236.844 113.622C236.609 111.396 234.812 110.067 231.961 110.067C228.992 110.067 227.352 111.435 227.312 113.31C227.273 115.341 229.422 116.278 231.844 116.825L234.383 117.45C239.227 118.544 242.859 121.005 242.859 125.731C242.859 130.927 238.797 134.208 231.922 134.208C225.086 134.208 220.711 131.044 220.555 124.989H226.258C226.453 127.841 228.719 129.286 231.844 129.286C234.93 129.286 236.922 127.841 236.922 125.731C236.922 123.817 235.164 122.919 232.078 122.138L228.992 121.396C224.227 120.224 221.297 117.841 221.297 113.7C221.297 108.544 225.828 105.146 232 105.146C238.25 105.146 242.391 108.622 242.469 113.622H236.844ZM245.594 110.38V105.536H268.758V110.38H260.086V133.817H254.266V110.38H245.594ZM273.641 133.817H267.312L277.117 105.536H284.656L294.422 133.817H288.133L286.023 127.294H275.789L273.641 133.817ZM277.273 122.724H284.539L280.984 111.903H280.789L277.273 122.724ZM325.75 115.38C325.281 112.255 322.859 110.341 319.578 110.341C315.164 110.341 312.273 113.739 312.273 119.677C312.273 125.771 315.203 129.013 319.539 129.013C322.781 129.013 325.164 127.216 325.75 124.169L331.688 124.208C331.023 129.442 326.648 134.208 319.461 134.208C311.883 134.208 306.297 128.896 306.297 119.677C306.297 110.458 312 105.146 319.461 105.146C325.984 105.146 330.906 108.896 331.688 115.38H325.75ZM335.789 133.817V105.536H341.648V128.974H353.836V133.817H335.789ZM375.125 105.536H381.023V123.896C381.023 130.106 376.336 134.208 369.305 134.208C362.273 134.208 357.625 130.106 357.625 123.896V105.536H363.484V123.427C363.484 126.669 365.789 129.052 369.305 129.052C372.859 129.052 375.125 126.669 375.125 123.427V105.536ZM385.789 133.817V105.536H397.039C403.289 105.536 406.414 108.544 406.414 112.802C406.414 116.122 404.266 118.192 401.336 118.856V119.13C404.539 119.286 407.547 121.825 407.547 126.005C407.547 130.497 404.188 133.817 397.781 133.817H385.789ZM396.609 128.974C400.008 128.974 401.453 127.567 401.453 125.458C401.453 123.075 399.656 121.396 396.766 121.396H391.648V128.974H396.609ZM396.18 117.372C398.641 117.372 400.477 116.005 400.477 113.739C400.477 111.708 398.992 110.302 396.297 110.302H391.648V117.372H396.18Z" fill="white"/>
</g>
<defs>
<filter id="filter0_d_474_3971" x="-2.04297" y="0.740234" width="415" height="151.077" filterUnits="userSpaceOnUse" color-interpolation-filters="sRGB">
<feFlood flood-opacity="0" result="BackgroundImageFix"/>
<feColorMatrix in="SourceAlpha" type="matrix" values="0 0 0 0 0 0 0 0 0 0 0 0 0 0 0 0 0 0 127 0" result="hardAlpha"/>
<feOffset dy="4"/>
<feGaussianBlur stdDeviation="2"/>
<feComposite in2="hardAlpha" operator="out"/>
<feColorMatrix type="matrix" values="0 0 0 0 0 0 0 0 0 0 0 0 0 0 0 0 0 0 0.25 0"/>
<feBlend mode="normal" in2="BackgroundImageFix" result="effect1_dropShadow_474_3971"/>
<feBlend mode="normal" in="SourceGraphic" in2="effect1_dropShadow_474_3971" result="shape"/>
</filter>
</defs>
</svg>
