<svg width="35" height="34" viewBox="0 0 35 34" fill="none" xmlns="http://www.w3.org/2000/svg">
<path d="M25.4847 24.4632C25.5061 24.6574 25.4869 24.8541 25.4283 25.0402C25.3697 25.2264 25.2732 25.3978 25.1449 25.5432C25.0163 25.6883 24.859 25.8041 24.6833 25.8829C24.5076 25.9616 24.3175 26.0016 24.1256 26.0001H10.8607C10.6688 26.0016 10.4787 25.9616 10.303 25.8829C10.1273 25.8041 9.97002 25.6883 9.84142 25.5432C9.71317 25.3978 9.61658 25.2264 9.55802 25.0402C9.49945 24.8541 9.48024 24.6574 9.50165 24.4632L10.6977 13.5386H24.2887L25.4847 24.4632Z" stroke="#1E1E1E" stroke-width="1.5" stroke-linecap="round" stroke-linejoin="round"/>
<path d="M14.0952 13.5384V11.4615C14.0952 10.5435 14.4532 9.66302 15.0904 9.01386C15.7276 8.3647 16.5918 8 17.493 8C18.3941 8 19.2583 8.3647 19.8955 9.01386C20.5327 9.66302 20.8907 10.5435 20.8907 11.4615V13.5384" stroke="#1E1E1E" stroke-width="1.5" stroke-linecap="round" stroke-linejoin="round"/>
</svg>
