<svg width="27" height="28" viewBox="0 0 27 28" fill="none" xmlns="http://www.w3.org/2000/svg">
<path d="M23.9894 23.7673C24.0162 23.9863 23.9921 24.208 23.9189 24.4178C23.8457 24.6277 23.725 24.821 23.5647 24.9849C23.4039 25.1485 23.2073 25.2791 22.9877 25.3679C22.768 25.4566 22.5304 25.5017 22.2905 25.5H5.70948C5.46955 25.5017 5.23196 25.4566 5.01234 25.3679C4.79273 25.2791 4.59607 25.1485 4.43532 24.9849C4.275 24.821 4.15427 24.6277 4.08107 24.4178C4.00786 24.208 3.98385 23.9863 4.0106 23.7673L5.50562 11.4507H22.4944L23.9894 23.7673Z" stroke="#333333" stroke-width="1.5" stroke-linecap="round" stroke-linejoin="round"/>
<path d="M9.75 11.4505V8.46903C9.75 7.15116 10.1975 5.88727 10.994 4.9554C11.7905 4.02352 12.8708 3.5 13.9972 3.5C15.1236 3.5 16.2039 4.02352 17.0004 4.9554C17.7969 5.88727 18.2444 7.15116 18.2444 8.46903V11.4505" stroke="#333333" stroke-width="1.5" stroke-linecap="round" stroke-linejoin="round"/>
</svg>
